<svg width="50" height="53" viewBox="0 0 50 53" fill="none" xmlns="http://www.w3.org/2000/svg">
<mask id="path-1-outside-1_3338_12817" maskUnits="userSpaceOnUse" x="1" y="5" width="22" height="34" fill="black">
<rect fill="white" x="1" y="5" width="22" height="34"/>
<path d="M22.5 29.185C22.5 30.991 22.156 32.4817 21.468 33.657C20.8087 34.8323 19.8914 35.764 18.716 36.452C17.5694 37.14 16.2364 37.6273 14.717 37.914C13.1977 38.172 11.6067 38.301 9.94402 38.301C8.51069 38.301 7.19202 38.2723 5.98802 38.215C4.78402 38.1577 3.76636 38.0573 2.93502 37.914C2.44769 37.8567 2.08936 37.7133 1.86002 37.484C1.63069 37.2547 1.51602 36.8677 1.51602 36.323V7.685C1.51602 6.71033 1.97469 6.18 2.89202 6.094C3.60869 6.008 4.56902 5.93633 5.77302 5.879C7.00569 5.793 8.32436 5.75 9.72902 5.75C11.449 5.75 13.0687 5.879 14.588 6.137C16.1074 6.395 17.4404 6.83933 18.587 7.47C19.7337 8.10067 20.6367 8.94633 21.296 10.007C21.984 11.0677 22.328 12.415 22.328 14.049V14.737C22.328 16.3423 21.9267 17.7327 21.124 18.908C20.3214 20.0547 19.189 20.9147 17.727 21.488C19.2177 22.004 20.3787 22.8783 21.21 24.111C22.07 25.3437 22.5 26.7913 22.5 28.454V29.185ZM18.415 14.049C18.415 13.017 18.2 12.1857 17.77 11.555C17.3687 10.8957 16.781 10.3797 16.007 10.007C15.2617 9.63433 14.3587 9.39067 13.298 9.276C12.2374 9.13266 11.0477 9.061 9.72902 9.061C8.98369 9.061 8.23836 9.07533 7.49302 9.104C6.74769 9.13267 6.07402 9.16133 5.47202 9.19V19.854H12.094C13.3267 19.854 14.3444 19.725 15.147 19.467C15.9784 19.1803 16.6377 18.8077 17.125 18.349C17.6124 17.8617 17.942 17.317 18.114 16.715C18.3147 16.0843 18.415 15.425 18.415 14.737V14.049ZM18.587 28.454C18.587 27.7373 18.4867 27.0493 18.286 26.39C18.0854 25.7307 17.727 25.1573 17.211 24.67C16.7237 24.154 16.0644 23.7527 15.233 23.466C14.4017 23.1507 13.3554 22.993 12.094 22.993H5.47202V34.818C6.18869 34.8467 6.91969 34.8897 7.66502 34.947C8.43902 34.9757 9.19869 34.99 9.94402 34.99C11.2627 34.99 12.4524 34.904 13.513 34.732C14.6024 34.56 15.5197 34.259 16.265 33.829C17.0104 33.399 17.5837 32.8113 17.985 32.066C18.3864 31.3207 18.587 30.3603 18.587 29.185V28.454Z"/>
</mask>
<path d="M22.5 29.185C22.5 30.991 22.156 32.4817 21.468 33.657C20.8087 34.8323 19.8914 35.764 18.716 36.452C17.5694 37.14 16.2364 37.6273 14.717 37.914C13.1977 38.172 11.6067 38.301 9.94402 38.301C8.51069 38.301 7.19202 38.2723 5.98802 38.215C4.78402 38.1577 3.76636 38.0573 2.93502 37.914C2.44769 37.8567 2.08936 37.7133 1.86002 37.484C1.63069 37.2547 1.51602 36.8677 1.51602 36.323V7.685C1.51602 6.71033 1.97469 6.18 2.89202 6.094C3.60869 6.008 4.56902 5.93633 5.77302 5.879C7.00569 5.793 8.32436 5.75 9.72902 5.75C11.449 5.75 13.0687 5.879 14.588 6.137C16.1074 6.395 17.4404 6.83933 18.587 7.47C19.7337 8.10067 20.6367 8.94633 21.296 10.007C21.984 11.0677 22.328 12.415 22.328 14.049V14.737C22.328 16.3423 21.9267 17.7327 21.124 18.908C20.3214 20.0547 19.189 20.9147 17.727 21.488C19.2177 22.004 20.3787 22.8783 21.21 24.111C22.07 25.3437 22.5 26.7913 22.5 28.454V29.185ZM18.415 14.049C18.415 13.017 18.2 12.1857 17.77 11.555C17.3687 10.8957 16.781 10.3797 16.007 10.007C15.2617 9.63433 14.3587 9.39067 13.298 9.276C12.2374 9.13266 11.0477 9.061 9.72902 9.061C8.98369 9.061 8.23836 9.07533 7.49302 9.104C6.74769 9.13267 6.07402 9.16133 5.47202 9.19V19.854H12.094C13.3267 19.854 14.3444 19.725 15.147 19.467C15.9784 19.1803 16.6377 18.8077 17.125 18.349C17.6124 17.8617 17.942 17.317 18.114 16.715C18.3147 16.0843 18.415 15.425 18.415 14.737V14.049ZM18.587 28.454C18.587 27.7373 18.4867 27.0493 18.286 26.39C18.0854 25.7307 17.727 25.1573 17.211 24.67C16.7237 24.154 16.0644 23.7527 15.233 23.466C14.4017 23.1507 13.3554 22.993 12.094 22.993H5.47202V34.818C6.18869 34.8467 6.91969 34.8897 7.66502 34.947C8.43902 34.9757 9.19869 34.99 9.94402 34.99C11.2627 34.99 12.4524 34.904 13.513 34.732C14.6024 34.56 15.5197 34.259 16.265 33.829C17.0104 33.399 17.5837 32.8113 17.985 32.066C18.3864 31.3207 18.587 30.3603 18.587 29.185V28.454Z" fill="white"/>
<path d="M21.468 33.657L21.0364 33.4044L21.032 33.4124L21.468 33.657ZM18.716 36.452L18.4634 36.0205L18.4588 36.0233L18.716 36.452ZM14.717 37.914L14.8007 38.407L14.8097 38.4053L14.717 37.914ZM5.98802 38.215L6.0118 37.7156L5.98802 38.215ZM2.93502 37.914L3.01998 37.4213L3.00676 37.419L2.99344 37.4174L2.93502 37.914ZM1.86002 37.484L1.50647 37.8376L1.50647 37.8376L1.86002 37.484ZM2.89202 6.094L2.93871 6.59198L2.95159 6.59044L2.89202 6.094ZM5.77302 5.879L5.79681 6.37855L5.80782 6.37779L5.77302 5.879ZM18.587 7.47L18.3461 7.90811L18.3461 7.90811L18.587 7.47ZM21.296 10.007L20.8713 10.271L20.8765 10.2791L21.296 10.007ZM21.124 18.908L21.5337 19.1947L21.5369 19.19L21.124 18.908ZM17.727 21.488L17.5445 21.0225L16.2829 21.5172L17.5635 21.9605L17.727 21.488ZM21.21 24.111L20.7954 24.3906L20.8 24.3971L21.21 24.111ZM17.77 11.555L17.3429 11.815L17.3496 11.826L17.3569 11.8367L17.77 11.555ZM16.007 10.007L15.7834 10.4543L15.7901 10.4575L16.007 10.007ZM13.298 9.276L13.231 9.77167L13.2443 9.7731L13.298 9.276ZM7.49302 9.104L7.47381 8.60437L7.4738 8.60437L7.49302 9.104ZM5.47202 9.19L5.44824 8.69057L4.97202 8.71324V9.19H5.47202ZM5.47202 19.854H4.97202V20.354H5.47202V19.854ZM15.147 19.467L15.3001 19.9431L15.31 19.9397L15.147 19.467ZM17.125 18.349L17.4677 18.7131L17.4732 18.7079L17.4786 18.7026L17.125 18.349ZM18.114 16.715L17.6376 16.5634L17.6353 16.5705L17.6333 16.5776L18.114 16.715ZM17.211 24.67L16.8475 25.0133L16.8573 25.0237L16.8677 25.0335L17.211 24.67ZM15.233 23.466L15.0557 23.9335L15.0628 23.9362L15.07 23.9387L15.233 23.466ZM5.47202 22.993V22.493H4.97202V22.993H5.47202ZM5.47202 34.818H4.97202V35.2984L5.45204 35.3176L5.47202 34.818ZM7.66502 34.947L7.62667 35.4455L7.63658 35.4463L7.64652 35.4467L7.66502 34.947ZM13.513 34.732L13.435 34.2381L13.433 34.2384L13.513 34.732ZM16.265 33.829L16.5149 34.2621L16.5149 34.2621L16.265 33.829ZM17.985 32.066L17.5448 31.8289L17.5448 31.8289L17.985 32.066ZM22 29.185C22 30.9303 21.6673 32.3268 21.0365 33.4044L21.8995 33.9096C22.6447 32.6366 23 31.0517 23 29.185H22ZM21.032 33.4124C20.4166 34.5094 19.5629 35.3769 18.4634 36.0205L18.9686 36.8835C20.2198 36.1511 21.2008 35.1553 21.9041 33.9016L21.032 33.4124ZM18.4588 36.0233C17.3701 36.6765 16.0945 37.1453 14.6243 37.4227L14.8097 38.4053C16.3782 38.1094 17.7686 37.6035 18.9733 36.8807L18.4588 36.0233ZM14.6333 37.4211C13.1437 37.674 11.5808 37.801 9.94402 37.801V38.801C11.6326 38.801 13.2517 38.67 14.8007 38.4069L14.6333 37.4211ZM9.94402 37.801C8.51719 37.801 7.20657 37.7725 6.0118 37.7156L5.96424 38.7144C7.17747 38.7722 8.50419 38.801 9.94402 38.801V37.801ZM6.0118 37.7156C4.82041 37.6588 3.82454 37.56 3.01998 37.4213L2.85007 38.4067C3.70817 38.5547 4.74763 38.6565 5.96424 38.7144L6.0118 37.7156ZM2.99344 37.4174C2.56318 37.3668 2.33173 37.2486 2.21358 37.1304L1.50647 37.8376C1.84698 38.1781 2.3322 38.3465 2.8766 38.4106L2.99344 37.4174ZM2.21358 37.1304C2.12457 37.0414 2.01602 36.82 2.01602 36.323H1.01602C1.01602 36.9154 1.13681 37.4679 1.50647 37.8376L2.21358 37.1304ZM2.01602 36.323V7.685H1.01602V36.323H2.01602ZM2.01602 7.685C2.01602 7.2711 2.11338 7.02765 2.2382 6.88332C2.35932 6.74328 2.56681 6.62668 2.93869 6.59182L2.84535 5.59618C2.2999 5.64732 1.81939 5.83888 1.48184 6.22917C1.148 6.61518 1.01602 7.12423 1.01602 7.685H2.01602ZM2.95159 6.59044C3.65115 6.50649 4.598 6.43552 5.7968 6.37843L5.74924 5.37956C4.54004 5.43714 3.56623 5.50951 2.83245 5.59756L2.95159 6.59044ZM5.80782 6.37779C7.02747 6.29269 8.33443 6.25 9.72902 6.25V5.25C8.31428 5.25 6.98391 5.2933 5.73822 5.38021L5.80782 6.37779ZM9.72902 6.25C11.4242 6.25 13.0156 6.37714 14.5043 6.62994L14.6717 5.64405C13.1218 5.38085 11.4739 5.25 9.72902 5.25V6.25ZM14.5043 6.62994C15.9781 6.8802 17.2562 7.30868 18.3461 7.90811L18.828 7.03189C17.6245 6.36998 16.2366 5.90979 14.6717 5.64405L14.5043 6.62994ZM18.3461 7.90811C19.4213 8.4995 20.2595 9.28668 20.8714 10.271L21.7207 9.74303C21.0139 8.60599 20.0461 7.70184 18.828 7.03189L18.3461 7.90811ZM20.8765 10.2791C21.4986 11.2381 21.828 12.4837 21.828 14.049H22.828C22.828 12.3463 22.4694 10.8972 21.7155 9.7349L20.8765 10.2791ZM21.828 14.049V14.737H22.828V14.049H21.828ZM21.828 14.737C21.828 16.2551 21.45 17.5441 20.7111 18.626L21.5369 19.19C22.4034 17.9212 22.828 16.4296 22.828 14.737H21.828ZM20.7144 18.6213C19.9749 19.6777 18.9264 20.4806 17.5445 21.0225L17.9096 21.9535C19.4516 21.3488 20.6678 20.4316 21.5336 19.1947L20.7144 18.6213ZM17.5635 21.9605C18.9584 22.4434 20.0285 23.2534 20.7955 24.3906L21.6246 23.8314C20.7288 22.5033 19.4769 21.5646 17.8906 21.0155L17.5635 21.9605ZM20.8 24.3971C21.5952 25.537 22 26.8823 22 28.454H23C23 26.7004 22.5448 25.1503 21.6201 23.8249L20.8 24.3971ZM22 28.454V29.185H23V28.454H22ZM18.915 14.049C18.915 12.9511 18.6865 12.0116 18.1831 11.2733L17.3569 11.8367C17.7135 12.3597 17.915 13.0829 17.915 14.049H18.915ZM18.1971 11.295C17.74 10.5441 17.0748 9.96615 16.2239 9.5565L15.7901 10.4575C16.4873 10.7932 16.9974 11.2472 17.3429 11.815L18.1971 11.295ZM16.2306 9.55979C15.4195 9.15423 14.4558 8.89825 13.3518 8.77889L13.2443 9.7731C14.2616 9.88308 15.1039 10.1144 15.7834 10.4542L16.2306 9.55979ZM13.365 8.7805C12.2777 8.63358 11.0652 8.561 9.72902 8.561V9.561C11.0302 9.561 12.197 9.63175 13.2311 9.77149L13.365 8.7805ZM9.72902 8.561C8.97728 8.561 8.22554 8.57545 7.47381 8.60437L7.51224 9.60363C8.25117 9.57521 8.9901 9.561 9.72902 9.561V8.561ZM7.4738 8.60437C6.72729 8.63308 6.05207 8.66181 5.44824 8.69057L5.4958 9.68943C6.09598 9.66085 6.76809 9.63225 7.51224 9.60363L7.4738 8.60437ZM4.97202 9.19V19.854H5.97202V9.19H4.97202ZM5.47202 20.354H12.094V19.354H5.47202V20.354ZM12.094 20.354C13.3569 20.354 14.4308 20.2224 15.3 19.943L14.994 18.991C14.2579 19.2276 13.2965 19.354 12.094 19.354V20.354ZM15.31 19.9397C16.1882 19.6369 16.9154 19.233 17.4677 18.7131L16.7823 17.9849C16.36 18.3824 15.7685 18.7238 14.984 18.9943L15.31 19.9397ZM17.4786 18.7026C18.0198 18.1613 18.3971 17.5441 18.5948 16.8524L17.6333 16.5776C17.4869 17.0899 17.2049 17.562 16.7715 17.9954L17.4786 18.7026ZM18.5905 16.8666C18.8074 16.185 18.915 15.4744 18.915 14.737H17.915C17.915 15.3756 17.822 15.9837 17.6376 16.5634L18.5905 16.8666ZM18.915 14.737V14.049H17.915V14.737H18.915ZM19.087 28.454C19.087 27.69 18.98 26.9528 18.7644 26.2444L17.8077 26.5356C17.9934 27.1459 18.087 27.7847 18.087 28.454H19.087ZM18.7644 26.2444C18.5376 25.4994 18.1315 24.8516 17.5543 24.3065L16.8677 25.0335C17.3225 25.463 17.6331 25.9619 17.8077 26.5356L18.7644 26.2444ZM17.5745 24.3267C17.0201 23.7396 16.2857 23.3001 15.396 22.9933L15.07 23.9387C15.843 24.2052 16.4273 24.5684 16.8475 25.0133L17.5745 24.3267ZM15.4103 22.9985C14.504 22.6547 13.3926 22.493 12.094 22.493V23.493C13.3181 23.493 14.2994 23.6466 15.0557 23.9335L15.4103 22.9985ZM12.094 22.493H5.47202V23.493H12.094V22.493ZM4.97202 22.993V34.818H5.97202V22.993H4.97202ZM5.45204 35.3176C6.16233 35.346 6.8872 35.3886 7.62667 35.4455L7.70337 34.4485C6.95218 34.3907 6.21505 34.3473 5.49201 34.3184L5.45204 35.3176ZM7.64652 35.4467C8.42644 35.4755 9.19228 35.49 9.94402 35.49V34.49C9.20509 34.49 8.4516 34.4758 7.68353 34.4473L7.64652 35.4467ZM9.94402 35.49C11.2837 35.49 12.5008 35.4027 13.5931 35.2256L13.433 34.2384C12.4039 34.4053 11.2417 34.49 9.94402 34.49V35.49ZM13.591 35.2259C14.7246 35.0469 15.7039 34.73 16.5149 34.2621L16.0152 33.3959C15.3355 33.788 14.4801 34.0731 13.435 34.2381L13.591 35.2259ZM16.5149 34.2621C17.3392 33.7865 17.9791 33.1316 18.4253 32.303L17.5448 31.8289C17.1882 32.4911 16.6815 33.0115 16.0152 33.3959L16.5149 34.2621ZM18.4253 32.303C18.8781 31.4621 19.087 30.4126 19.087 29.185H18.087C18.087 30.308 17.8946 31.1793 17.5448 31.8289L18.4253 32.303ZM19.087 29.185V28.454H18.087V29.185H19.087Z" fill="white" mask="url(#path-1-outside-1_3338_12817)"/>
<mask id="path-3-outside-2_3338_12817" maskUnits="userSpaceOnUse" x="28" y="5" width="21" height="34" fill="black">
<rect fill="white" x="28" y="5" width="21" height="34"/>
<path d="M47.5084 27.68C47.5084 29.2853 47.3221 30.7473 46.9494 32.066C46.5768 33.3847 46.0034 34.5027 45.2294 35.42C44.4554 36.3373 43.4808 37.054 42.3054 37.57C41.1301 38.0573 39.7398 38.301 38.1344 38.301C36.8444 38.301 35.5401 38.2437 34.2214 38.129C32.9028 38.0143 31.5698 37.828 30.2224 37.57C29.8211 37.5127 29.5631 37.4123 29.4484 37.269C29.3624 37.1257 29.3194 36.8963 29.3194 36.581V6.481C29.3194 6.25166 29.3911 6.06533 29.5344 5.922C29.6778 5.75 29.8641 5.664 30.0934 5.664H32.2864C32.5158 5.664 32.7021 5.75 32.8454 5.922C33.0174 6.06533 33.1034 6.25166 33.1034 6.481V14.479C33.9348 14.3357 34.8091 14.2353 35.7264 14.178C36.6438 14.092 37.4464 14.049 38.1344 14.049C41.2591 14.049 43.5954 14.9663 45.1434 16.801C46.7201 18.607 47.5084 21.2013 47.5084 24.584V27.68ZM43.7244 24.584C43.7244 22.2907 43.3088 20.5133 42.4774 19.252C41.6748 17.9907 40.2271 17.36 38.1344 17.36C37.7904 17.36 37.4034 17.3743 36.9734 17.403C36.5434 17.403 36.0991 17.4173 35.6404 17.446C35.1818 17.446 34.7231 17.4747 34.2644 17.532C33.8344 17.5607 33.4474 17.6037 33.1034 17.661V34.732C33.8488 34.7893 34.6801 34.8467 35.5974 34.904C36.5434 34.9613 37.3891 34.99 38.1344 34.99C40.2558 34.99 41.7178 34.3593 42.5204 33.098C43.3231 31.8367 43.7244 30.0307 43.7244 27.68V24.584Z"/>
</mask>
<path d="M47.5084 27.68C47.5084 29.2853 47.3221 30.7473 46.9494 32.066C46.5768 33.3847 46.0034 34.5027 45.2294 35.42C44.4554 36.3373 43.4808 37.054 42.3054 37.57C41.1301 38.0573 39.7398 38.301 38.1344 38.301C36.8444 38.301 35.5401 38.2437 34.2214 38.129C32.9028 38.0143 31.5698 37.828 30.2224 37.57C29.8211 37.5127 29.5631 37.4123 29.4484 37.269C29.3624 37.1257 29.3194 36.8963 29.3194 36.581V6.481C29.3194 6.25166 29.3911 6.06533 29.5344 5.922C29.6778 5.75 29.8641 5.664 30.0934 5.664H32.2864C32.5158 5.664 32.7021 5.75 32.8454 5.922C33.0174 6.06533 33.1034 6.25166 33.1034 6.481V14.479C33.9348 14.3357 34.8091 14.2353 35.7264 14.178C36.6438 14.092 37.4464 14.049 38.1344 14.049C41.2591 14.049 43.5954 14.9663 45.1434 16.801C46.7201 18.607 47.5084 21.2013 47.5084 24.584V27.68ZM43.7244 24.584C43.7244 22.2907 43.3088 20.5133 42.4774 19.252C41.6748 17.9907 40.2271 17.36 38.1344 17.36C37.7904 17.36 37.4034 17.3743 36.9734 17.403C36.5434 17.403 36.0991 17.4173 35.6404 17.446C35.1818 17.446 34.7231 17.4747 34.2644 17.532C33.8344 17.5607 33.4474 17.6037 33.1034 17.661V34.732C33.8488 34.7893 34.6801 34.8467 35.5974 34.904C36.5434 34.9613 37.3891 34.99 38.1344 34.99C40.2558 34.99 41.7178 34.3593 42.5204 33.098C43.3231 31.8367 43.7244 30.0307 43.7244 27.68V24.584Z" fill="white"/>
<path d="M46.9494 32.066L46.4683 31.93L46.4683 31.93L46.9494 32.066ZM45.2294 35.42L45.6116 35.7424L45.6116 35.7424L45.2294 35.42ZM42.3054 37.57L42.497 38.032L42.5064 38.0278L42.3054 37.57ZM34.2214 38.129L34.2647 37.6309L34.2647 37.6309L34.2214 38.129ZM30.2224 37.57L30.3165 37.0789L30.3048 37.0767L30.2931 37.075L30.2224 37.57ZM29.4484 37.269L29.0197 37.5262L29.037 37.5551L29.058 37.5813L29.4484 37.269ZM29.5344 5.922L29.888 6.27555L29.904 6.25951L29.9185 6.24209L29.5344 5.922ZM32.8454 5.922L32.4613 6.24209L32.4904 6.27701L32.5253 6.30611L32.8454 5.922ZM33.1034 14.479H32.6034V15.0726L33.1884 14.9717L33.1034 14.479ZM35.7264 14.178L35.7576 14.677L35.7654 14.6765L35.7731 14.6758L35.7264 14.178ZM45.1434 16.801L44.7612 17.1235L44.7668 17.1298L45.1434 16.801ZM42.4774 19.252L42.0555 19.5205L42.0599 19.5272L42.4774 19.252ZM36.9734 17.403V17.903H36.9901L37.0067 17.9019L36.9734 17.403ZM35.6404 17.446V17.946H35.656L35.6716 17.945L35.6404 17.446ZM34.2644 17.532L34.2977 18.0309L34.3121 18.0299L34.3264 18.0281L34.2644 17.532ZM33.1034 17.661L33.0212 17.1678L32.6034 17.2374V17.661H33.1034ZM33.1034 34.732H32.6034V35.195L33.0651 35.2305L33.1034 34.732ZM35.5974 34.904L35.5662 35.403L35.5672 35.4031L35.5974 34.904ZM42.5204 33.098L42.9423 33.3664L42.9423 33.3664L42.5204 33.098ZM47.0084 27.68C47.0084 29.247 46.8265 30.6624 46.4683 31.93L47.4306 32.202C47.8177 30.8323 48.0084 29.3237 48.0084 27.68H47.0084ZM46.4683 31.93C46.1122 33.1899 45.5693 34.2418 44.8473 35.0976L45.6116 35.7424C46.4375 34.7635 47.0413 33.5794 47.4306 32.202L46.4683 31.93ZM44.8473 35.0976C44.1259 35.9525 43.2148 36.6247 42.1044 37.1122L42.5064 38.0278C43.7467 37.4833 44.7849 36.7221 45.6116 35.7424L44.8473 35.0976ZM42.1139 37.1081C41.0129 37.5646 39.6906 37.801 38.1344 37.801V38.801C39.7889 38.801 41.2473 38.55 42.4969 38.0319L42.1139 37.1081ZM38.1344 37.801C36.8592 37.801 35.5694 37.7443 34.2647 37.6309L34.1781 38.6271C35.5108 38.743 36.8296 38.801 38.1344 38.801V37.801ZM34.2647 37.6309C32.9637 37.5177 31.6476 37.3338 30.3165 37.0789L30.1284 38.0611C31.4919 38.3222 32.8418 38.5109 34.1781 38.6271L34.2647 37.6309ZM30.2931 37.075C30.1145 37.0495 29.9903 37.0173 29.9091 36.9857C29.8237 36.9525 29.8201 36.9332 29.8389 36.9567L29.058 37.5813C29.1914 37.7481 29.3742 37.8507 29.5467 37.9178C29.7236 37.9865 29.929 38.0332 30.1517 38.065L30.2931 37.075ZM29.8772 37.0118C29.8633 36.9887 29.8194 36.8733 29.8194 36.581H28.8194C28.8194 36.9193 28.8615 37.2626 29.0197 37.5262L29.8772 37.0118ZM29.8194 36.581V6.481H28.8194V36.581H29.8194ZM29.8194 6.481C29.8194 6.36529 29.851 6.31249 29.888 6.27555L29.1809 5.56844C28.9311 5.81817 28.8194 6.13804 28.8194 6.481H29.8194ZM29.9185 6.24209C29.9642 6.18725 30.0083 6.164 30.0934 6.164V5.164C29.7199 5.164 29.3913 5.31275 29.1503 5.60191L29.9185 6.24209ZM30.0934 6.164H32.2864V5.164H30.0934V6.164ZM32.2864 6.164C32.3715 6.164 32.4156 6.18725 32.4613 6.24209L33.2295 5.60191C32.9886 5.31275 32.66 5.164 32.2864 5.164V6.164ZM32.5253 6.30611C32.5802 6.35181 32.6034 6.39589 32.6034 6.481H33.6034C33.6034 6.10744 33.4547 5.77885 33.1655 5.53789L32.5253 6.30611ZM32.6034 6.481V14.479H33.6034V6.481H32.6034ZM33.1884 14.9717C34.0004 14.8317 34.8567 14.7333 35.7576 14.677L35.6952 13.679C34.7615 13.7373 33.8691 13.8396 33.0185 13.9863L33.1884 14.9717ZM35.7731 14.6758C36.6797 14.5908 37.4662 14.549 38.1344 14.549V13.549C37.4266 13.549 36.6078 13.5932 35.6797 13.6802L35.7731 14.6758ZM38.1344 14.549C41.1594 14.549 43.3352 15.4333 44.7613 17.1234L45.5256 16.4786C43.8556 14.4994 41.3588 13.549 38.1344 13.549V14.549ZM44.7668 17.1298C46.2366 18.8134 47.0084 21.2729 47.0084 24.584H48.0084C48.0084 21.1297 47.2036 18.4006 45.5201 16.4722L44.7668 17.1298ZM47.0084 24.584V27.68H48.0084V24.584H47.0084ZM44.2244 24.584C44.2244 22.2401 43.8012 20.352 42.8949 18.9768L42.0599 19.5272C42.8163 20.6747 43.2244 22.3412 43.2244 24.584H44.2244ZM42.8993 18.9836C41.9707 17.5244 40.323 16.86 38.1344 16.86V17.86C40.1311 17.86 41.3788 18.4569 42.0556 19.5204L42.8993 18.9836ZM38.1344 16.86C37.777 16.86 37.3786 16.8749 36.9402 16.9041L37.0067 17.9019C37.4282 17.8738 37.8039 17.86 38.1344 17.86V16.86ZM36.9734 16.903C36.5323 16.903 36.0776 16.9177 35.6092 16.947L35.6716 17.945C36.1206 17.917 36.5545 17.903 36.9734 17.903V16.903ZM35.6404 16.946C35.1609 16.946 34.6815 16.976 34.2024 17.0359L34.3264 18.0281C34.7647 17.9734 35.2026 17.946 35.6404 17.946V16.946ZM34.2312 17.0331C33.7884 17.0626 33.3847 17.1072 33.0212 17.1678L33.1856 18.1542C33.5102 18.1001 33.8804 18.0587 34.2977 18.0309L34.2312 17.0331ZM32.6034 17.661V34.732H33.6034V17.661H32.6034ZM33.0651 35.2305C33.8133 35.2881 34.647 35.3456 35.5662 35.403L35.6286 34.405C34.7131 34.3478 33.8843 34.2906 33.1418 34.2335L33.0651 35.2305ZM35.5672 35.4031C36.5207 35.4609 37.3767 35.49 38.1344 35.49V34.49C37.4014 34.49 36.5662 34.4618 35.6277 34.4049L35.5672 35.4031ZM38.1344 35.49C40.3485 35.49 42.0125 34.8275 42.9423 33.3664L42.0986 32.8296C41.423 33.8912 40.163 34.49 38.1344 34.49V35.49ZM42.9423 33.3664C43.8174 31.9912 44.2244 30.0759 44.2244 27.68H43.2244C43.2244 29.9855 42.8288 31.6821 42.0986 32.8296L42.9423 33.3664ZM44.2244 27.68V24.584H43.2244V27.68H44.2244Z" fill="white" mask="url(#path-3-outside-2_3338_12817)"/>
</svg>
