<svg width="48" height="48" viewBox="0 0 48 48" fill="none" xmlns="http://www.w3.org/2000/svg">
<path fill-rule="evenodd" clip-rule="evenodd" d="M0 24C0 17.7868 4.41295 12.606 10.2765 11.4185C11.4694 4.92182 17.1591 0 24 0C31.559 0 37.7141 6.01057 37.9467 13.5131C43.6301 14.3226 48 19.2091 48 25.1163C48 31.5896 42.7524 36.8372 36.2791 36.8372H25.6744V39.0698H26.2326C28.0024 39.0698 29.4974 40.2466 29.9777 41.8605H39.6279C40.5527 41.8605 41.3023 42.6101 41.3023 43.5349C41.3023 44.4596 40.5527 45.2093 39.6279 45.2093H29.9777C29.4974 46.8232 28.0024 48 26.2326 48H21.7674C19.9976 48 18.5026 46.8232 18.0223 45.2093H8.37209C7.44734 45.2093 6.69767 44.4596 6.69767 43.5349C6.69767 42.6101 7.44734 41.8605 8.37209 41.8605H18.0223C18.5026 40.2466 19.9976 39.0698 21.7674 39.0698H22.3256V36.8372H12.8372C5.74741 36.8372 0 31.0898 0 24ZM36.2791 33.4884C40.9029 33.4884 44.6512 29.7401 44.6512 25.1163C44.6512 20.9597 41.622 17.5106 37.6509 16.856C37.1771 19.0941 36.1671 21.134 34.7634 22.8337C34.1746 23.5467 33.1192 23.6474 32.4062 23.0585C31.6931 22.4696 31.5925 21.4142 32.1813 20.7012C33.5045 19.0991 34.3644 17.1051 34.5613 14.9196C34.59 14.6018 34.6047 14.2796 34.6047 13.9535C34.6047 8.0967 29.8568 3.34884 24 3.34884C19.0976 3.34884 14.9709 6.6764 13.7573 11.1953C16.2916 11.3751 18.6257 12.2915 20.5418 13.7311C21.2811 14.2866 21.4301 15.3362 20.8747 16.0755C20.3192 16.8149 19.2695 16.9639 18.5302 16.4085C16.9444 15.217 14.9756 14.5116 12.8372 14.5116C12.5291 14.5116 12.2249 14.5263 11.9251 14.5548C7.11359 15.0127 3.34884 19.0677 3.34884 24C3.34884 29.2403 7.59693 33.4884 12.8372 33.4884H36.2791ZM21.2093 42.9767C21.2093 42.6685 21.4592 42.4186 21.7674 42.4186H26.2326C26.5408 42.4186 26.7907 42.6685 26.7907 42.9767V44.093C26.7907 44.4013 26.5408 44.6512 26.2326 44.6512H21.7674C21.4592 44.6512 21.2093 44.4013 21.2093 44.093V42.9767Z" fill="white"/>
</svg>
