<svg width="41" height="52" viewBox="0 0 41 52" fill="none" xmlns="http://www.w3.org/2000/svg">
<path d="M33.0991 33.0982C33.0991 40.9926 33.0991 44.9398 30.822 47.3923C28.5448 49.8448 24.8796 49.8448 17.5496 49.8448C10.2194 49.8448 6.55437 49.8448 4.27717 47.3923C2 44.9398 2 40.9926 2 33.0982V18.7438C2 10.8493 2 6.90204 4.27717 4.44954C6.31168 2.25839 9.45403 2.02488 15.3282 2" stroke="white" stroke-width="4" stroke-linecap="round"/>
<path d="M17.5195 42.6641H17.5391" stroke="white" stroke-width="4" stroke-linecap="round" stroke-linejoin="round"/>
<path d="M28.1573 26.2365C34.1467 26.2365 39.0022 21.3811 39.0022 15.3917C39.0022 9.40228 34.1467 4.54688 28.1573 4.54688M28.1573 26.2365C22.1679 26.2365 17.3125 21.3811 17.3125 15.3917C17.3125 9.40228 22.1679 4.54688 28.1573 4.54688M28.1573 26.2365C30.5532 26.2365 32.4953 21.3811 32.4953 15.3917C32.4953 9.40228 30.5532 4.54688 28.1573 4.54688M28.1573 26.2365C25.7615 26.2365 23.8194 21.3811 23.8194 15.3917C23.8194 9.40228 25.7615 4.54688 28.1573 4.54688" stroke="white" stroke-width="2.6" stroke-linecap="round" stroke-linejoin="round"/>
</svg>
