<svg width="32" height="50" viewBox="0 0 32 50" fill="none" xmlns="http://www.w3.org/2000/svg">
<path d="M6.59766 45.7044C6.59766 42.4519 6.59766 40.8256 7.6081 39.815C8.61854 38.8047 10.2448 38.8047 13.4974 38.8047H18.0972C21.3497 38.8047 22.976 38.8047 23.9866 39.815C24.9969 40.8256 24.9969 42.4519 24.9969 45.7044V48.0043H6.59766V45.7044Z" stroke="white" stroke-width="3" stroke-linecap="round" stroke-linejoin="round"/>
<path d="M15.8008 27.3047V38.8042" stroke="white" stroke-width="3" stroke-linecap="round" stroke-linejoin="round"/>
<path d="M2 48H29.5989" stroke="white" stroke-width="3" stroke-linecap="round" stroke-linejoin="round"/>
<path d="M18.1835 3.9929L20.612 8.88991C20.943 9.57157 21.8261 10.2254 22.5713 10.3506L26.9729 11.088C29.7875 11.561 30.4499 13.62 28.4216 15.6511L24.9998 19.1013C24.4202 19.6856 24.1028 20.8123 24.2822 21.6194L25.2617 25.8903C26.0345 29.2709 24.2546 30.5786 21.2879 28.8119L17.1624 26.3493C16.4174 25.9041 15.1893 25.9041 14.4305 26.3493L10.3049 28.8119C7.35211 30.5786 5.55839 29.2569 6.33107 25.8903L7.31072 21.6194C7.49011 20.8123 7.17274 19.6856 6.59324 19.1013L3.17134 15.6511C1.15686 13.62 1.80536 11.561 4.62012 11.088L9.02166 10.3506C9.75296 10.2254 10.636 9.57157 10.9672 8.88991L13.3956 3.9929C14.7201 1.3357 16.8726 1.3357 18.1835 3.9929Z" stroke="white" stroke-width="3" stroke-linecap="round" stroke-linejoin="round"/>
</svg>
