<svg width="40" height="48" viewBox="0 0 40 48" fill="none" xmlns="http://www.w3.org/2000/svg">
<path d="M36.2945 37.3984C34.9719 38.2817 34.082 39.9326 34.082 41.8234C34.082 43.7142 34.9719 45.3652 36.2945 46.2484" stroke="white" stroke-width="3.5" stroke-linecap="round"/>
<path d="M37.4 46.25H6.425C3.98114 46.25 2 44.2689 2 41.825M2 41.825C2 39.3811 3.98114 37.4 6.425 37.4H37.4V2H6.425C3.98114 2 2 3.98114 2 6.425V41.825Z" stroke="white" stroke-width="3.5" stroke-linecap="round" stroke-linejoin="round"/>
<path d="M19.6977 28.5516C24.5853 28.5516 28.5477 24.5893 28.5477 19.7016C28.5477 14.8138 24.5853 10.8516 19.6977 10.8516M19.6977 28.5516C14.8099 28.5516 10.8477 24.5893 10.8477 19.7016C10.8477 14.8138 14.8099 10.8516 19.6977 10.8516M19.6977 28.5516C21.6528 28.5516 23.2377 24.5893 23.2377 19.7016C23.2377 14.8138 21.6528 10.8516 19.6977 10.8516M19.6977 28.5516C17.7425 28.5516 16.1577 24.5893 16.1577 19.7016C16.1577 14.8138 17.7425 10.8516 19.6977 10.8516" stroke="white" stroke-width="2.5" stroke-linecap="round" stroke-linejoin="round"/>
</svg>
