<svg width="50" height="50" viewBox="0 0 50 50" fill="none" xmlns="http://www.w3.org/2000/svg">
<path d="M27.026 13.5381L38.0037 16.4629M24.6729 22.2708L30.1616 23.7331M24.9459 38.7226L27.1415 39.3078C33.3512 40.9621 36.4562 41.7894 38.9023 40.3853C41.3483 38.9809 42.1805 35.8934 43.8443 29.7186L46.1974 20.986C47.8615 14.8111 48.6934 11.7236 47.2812 9.29135C45.869 6.85906 42.764 6.03177 36.554 4.37723L34.3584 3.79225C28.1487 2.13768 25.0437 1.31041 22.5976 2.7147C20.1515 4.11898 19.3195 7.20643 17.6556 13.3813L15.3024 22.1139C13.6385 28.2887 12.8065 31.3762 14.2187 33.8085C15.631 36.2409 18.736 37.0682 24.9459 38.7226Z" stroke="white" stroke-width="3.5" stroke-linecap="round"/>
<path d="M24.9999 45.5764L22.8097 46.1728C16.6142 47.8599 13.5166 48.7033 11.0762 47.2715C8.63588 45.8398 7.80586 42.6918 6.14581 36.3958L3.79819 27.4918C2.13814 21.1958 1.30812 18.0477 2.71707 15.5677C3.93584 13.4225 6.59999 13.5006 10.05 13.5003" stroke="white" stroke-width="3.5" stroke-linecap="round"/>
</svg>
