<svg width="39" height="48" viewBox="0 0 39 48" fill="none" xmlns="http://www.w3.org/2000/svg">
<path d="M2.58248 38.6387C3.07159 42.2715 6.08056 45.1175 9.74222 45.2859C12.8233 45.4275 15.9532 45.5014 19.3999 45.5014C22.8466 45.5014 25.9764 45.4275 29.0575 45.2859C32.7193 45.1175 35.7282 42.2715 36.2173 38.6387C36.5366 36.2679 36.7998 33.8382 36.7998 31.364C36.7998 28.8897 36.5366 26.46 36.2173 24.0893C35.7282 20.4564 32.7193 17.6104 29.0575 17.4421C25.9764 17.3004 22.8466 17.2266 19.3999 17.2266C15.9532 17.2266 12.8233 17.3004 9.74222 17.4421C6.08056 17.6104 3.07159 20.4564 2.58248 24.0893C2.26328 26.46 2 28.8897 2 31.364C2 33.8382 2.26328 36.2679 2.58248 38.6387Z" stroke="white" stroke-width="3.5"/>
<path d="M9.61328 17.2249V11.7874C9.61328 6.38199 13.9953 2 19.4007 2C24.8062 2 29.1882 6.38199 29.1882 11.7874V17.2249" stroke="white" stroke-width="3.5" stroke-linecap="round" stroke-linejoin="round"/>
<path d="M23.9844 31.3047V31.3264" stroke="white" stroke-width="5" stroke-linecap="round" stroke-linejoin="round"/>
<path d="M14.3633 31.3047V31.3264" stroke="white" stroke-width="5" stroke-linecap="round" stroke-linejoin="round"/>
</svg>
