<svg width="42" height="52" viewBox="0 0 42 52" fill="none" xmlns="http://www.w3.org/2000/svg">
<path d="M2.63605 42.0062C3.17014 45.9731 6.45581 49.0808 10.4542 49.2646C13.8186 49.4192 17.2363 49.5 21 49.5C24.7637 49.5 28.1813 49.4192 31.5457 49.2646C35.5443 49.0808 38.8298 45.9731 39.364 42.0062C39.7126 39.4174 40 36.7643 40 34.0625C40 31.3607 39.7126 28.7076 39.364 26.1188C38.8298 22.1519 35.5443 19.0442 31.5457 18.8603C28.1813 18.7057 24.7637 18.625 21 18.625C17.2363 18.625 13.8186 18.7057 10.4542 18.8603C6.45581 19.0442 3.17014 22.1519 2.63605 26.1188C2.28749 28.7076 2 31.3607 2 34.0625C2 36.7643 2.28749 39.4174 2.63605 42.0062Z" stroke="white" stroke-width="3.8"/>
<path d="M10.3125 18.625V12.6875C10.3125 6.78496 15.0975 2 21 2C26.9026 2 31.6875 6.78496 31.6875 12.6875V18.625" stroke="white" stroke-width="3.8" stroke-linecap="round" stroke-linejoin="round"/>
<path d="M26.0039 34V34.0238" stroke="white" stroke-width="5" stroke-linecap="round" stroke-linejoin="round"/>
<path d="M15.5 34V34.0238" stroke="white" stroke-width="5" stroke-linecap="round" stroke-linejoin="round"/>
</svg>
