<svg width="43" height="50" viewBox="0 0 43 50" fill="none" xmlns="http://www.w3.org/2000/svg">
<path d="M13.1445 37.0639C17.3049 32.5819 24.9982 32.3708 29.2034 37.0639M25.6259 23.2992C25.6259 25.8333 23.6259 27.8874 21.1588 27.8874C18.6917 27.8874 16.6917 25.8333 16.6917 23.2992C16.6917 20.7651 18.6917 18.7109 21.1588 18.7109C23.6259 18.7109 25.6259 20.7651 25.6259 23.2992Z" stroke="white" stroke-width="3.5" stroke-linecap="round"/>
<path d="M15.7647 6.58594C9.69816 6.60856 6.4529 6.82067 4.35177 8.81123C2 11.0392 2 14.6251 2 21.797V32.6637C2 39.8356 2 43.4213 4.35177 45.6494C6.70351 47.8774 10.4886 47.8774 18.0588 47.8774H24.9412C32.5113 47.8774 36.2964 47.8774 38.6483 45.6494C41 43.4213 41 39.8356 41 32.6637V21.797C41 14.6251 41 11.0392 38.6483 8.81123C36.5471 6.82067 33.3019 6.60856 27.2353 6.58594" stroke="white" stroke-width="3.5" stroke-linecap="round" stroke-linejoin="round"/>
<path d="M16.3861 5.74315C16.6062 4.79153 16.7162 4.31573 16.9276 3.92715C17.4201 3.02194 18.3284 2.35669 19.4126 2.10714C19.878 2 20.4179 2 21.497 2C22.5762 2 23.116 2 23.5814 2.10714C24.6656 2.35669 25.5739 3.02191 26.0664 3.92715C26.2777 4.31573 26.3878 4.79153 26.6078 5.74315L26.7989 6.56933C27.1894 8.25707 27.3846 9.10094 27.0901 9.75008C26.8994 10.1705 26.5743 10.5305 26.1564 10.7844C25.5108 11.1765 24.5537 11.1765 22.6397 11.1765H20.3543C18.4403 11.1765 17.4832 11.1765 16.8377 10.7844C16.4196 10.5305 16.0946 10.1705 15.9039 9.75008C15.6094 9.10094 15.8046 8.25707 16.195 6.56933L16.3861 5.74315Z" stroke="white" stroke-width="3.5"/>
</svg>
