<svg width="45" height="47" viewBox="0 0 45 47" fill="none" xmlns="http://www.w3.org/2000/svg">
<path d="M35.4455 2V6.31579M9.55078 2V6.31579" stroke="white" stroke-width="3.5" stroke-linecap="round" stroke-linejoin="round"/>
<path d="M22.4891 25.7344H22.5085M22.4891 34.366H22.5085M31.1109 25.7344H31.1303M13.8672 25.7344H13.8865M13.8672 34.366H13.8865" stroke="white" stroke-width="3.5" stroke-linecap="round" stroke-linejoin="round"/>
<path d="M4.16016 14.9531H40.8444" stroke="white" stroke-width="3.5" stroke-linecap="round" stroke-linejoin="round"/>
<path d="M2 24.0943C2 14.6918 2 9.99046 4.70194 7.06945C7.40389 4.14844 11.7526 4.14844 20.45 4.14844H24.55C33.2474 4.14844 37.5962 4.14844 40.2981 7.06945C43 9.99046 43 14.6918 43 24.0943V25.2026C43 34.6052 43 39.3064 40.2981 42.2275C37.5962 45.1484 33.2474 45.1484 24.55 45.1484H20.45C11.7526 45.1484 7.40389 45.1484 4.70194 42.2275C2 39.3064 2 34.6052 2 25.2026V24.0943Z" stroke="white" stroke-width="3.5" stroke-linecap="round" stroke-linejoin="round"/>
<path d="M3.07422 14.9531H41.9163" stroke="white" stroke-width="3.5" stroke-linecap="round" stroke-linejoin="round"/>
</svg>
