<svg width="48" height="53" viewBox="0 0 48 53" fill="none" xmlns="http://www.w3.org/2000/svg">
<path opacity="0.6" d="M2 2H46" stroke="white" stroke-opacity="0.64" stroke-width="3" stroke-linecap="round"/>
<path opacity="0.6" d="M2 42H46" stroke="white" stroke-opacity="0.64" stroke-width="3" stroke-linecap="round"/>
<path d="M34.4776 28.2491C34.4776 29.8451 34.1736 31.1624 33.5656 32.2011C32.983 33.2397 32.1723 34.0631 31.1336 34.6711C30.1203 35.2791 28.9423 35.7097 27.5996 35.9631C26.257 36.1911 24.851 36.3051 23.3816 36.3051C22.115 36.3051 20.9496 36.2797 19.8856 36.2291C18.8216 36.1784 17.9223 36.0897 17.1876 35.9631C16.757 35.9124 16.4403 35.7857 16.2376 35.5831C16.035 35.3804 15.9336 35.0384 15.9336 34.5571V9.24906C15.9336 8.38773 16.339 7.91906 17.1496 7.84306C17.783 7.76706 18.6316 7.70373 19.6956 7.65306C20.785 7.57706 21.9503 7.53906 23.1916 7.53906C24.7116 7.53906 26.143 7.65306 27.4856 7.88106C28.8283 8.10906 30.0063 8.50173 31.0196 9.05906C32.033 9.61639 32.831 10.3637 33.4136 11.3011C34.0216 12.2384 34.3256 13.4291 34.3256 14.8731V15.4811C34.3256 16.8997 33.971 18.1284 33.2616 19.1671C32.5523 20.1804 31.5516 20.9404 30.2596 21.4471C31.577 21.9031 32.603 22.6757 33.3376 23.7651C34.0976 24.8544 34.4776 26.1337 34.4776 27.6031V28.2491ZM30.8676 14.8731C30.8676 13.9611 30.6776 13.2264 30.2976 12.6691C29.943 12.0864 29.4236 11.6304 28.7396 11.3011C28.081 10.9717 27.283 10.7564 26.3456 10.6551C25.4083 10.5284 24.357 10.4651 23.1916 10.4651C22.533 10.4651 21.8743 10.4777 21.2156 10.5031C20.557 10.5284 19.9616 10.5537 19.4296 10.5791V20.0031H25.2816C26.371 20.0031 27.2703 19.8891 27.9796 19.6611C28.7143 19.4077 29.297 19.0784 29.7276 18.6731C30.1583 18.2424 30.4496 17.7611 30.6016 17.2291C30.779 16.6717 30.8676 16.0891 30.8676 15.4811V14.8731ZM31.0196 27.6031C31.0196 26.9697 30.931 26.3617 30.7536 25.7791C30.5763 25.1964 30.2596 24.6897 29.8036 24.2591C29.373 23.8031 28.7903 23.4484 28.0556 23.1951C27.321 22.9164 26.3963 22.7771 25.2816 22.7771H19.4296V33.2271C20.063 33.2524 20.709 33.2904 21.3676 33.3411C22.0516 33.3664 22.723 33.3791 23.3816 33.3791C24.547 33.3791 25.5983 33.3031 26.5356 33.1511C27.4983 32.9991 28.309 32.7331 28.9676 32.3531C29.6263 31.9731 30.133 31.4537 30.4876 30.7951C30.8423 30.1364 31.0196 29.2877 31.0196 28.2491V27.6031Z" fill="white"/>
</svg>
