<svg width="36" height="50" viewBox="0 0 36 50" fill="none" xmlns="http://www.w3.org/2000/svg">
<path d="M2 17.9023C2 10.4059 2 6.65768 4.32885 4.32885C6.65768 2 10.4059 2 17.9023 2C25.3987 2 29.1469 2 31.4759 4.32885C33.8047 6.65768 33.8047 10.4059 33.8047 17.9023V31.5329C33.8047 39.0293 33.8047 42.7775 31.4759 45.1065C29.1469 47.4353 25.3987 47.4353 17.9023 47.4353C10.4059 47.4353 6.65768 47.4353 4.32885 45.1065C2 42.7775 2 39.0293 2 31.5329V17.9023Z" stroke="white" stroke-width="3.5" stroke-linecap="round"/>
<path d="M17.9023 37.9688H17.9228" stroke="white" stroke-width="5" stroke-linecap="round" stroke-linejoin="round"/>
<path d="M10.3906 14.3672H25.4095" stroke="white" stroke-width="2.4" stroke-linecap="round"/>
<path d="M10.3906 26.7344H25.4095" stroke="white" stroke-width="2.4" stroke-linecap="round"/>
<path d="M13.2773 20.5547H22.5197" stroke="white" stroke-width="2.4" stroke-linecap="round"/>
</svg>
