<svg width="52" height="52" viewBox="0 0 52 52" fill="none" xmlns="http://www.w3.org/2000/svg">
<path fill-rule="evenodd" clip-rule="evenodd" d="M7.18603 22.5434L5.37295 21.5885L5.18374 21.4644C3.77154 20.5384 2.54133 19.7318 1.68884 18.9667C0.785887 18.1563 -0.0502753 17.0802 0.00235958 15.5822C0.055181 14.0789 0.970281 13.0681 1.93318 12.3314C2.83903 11.6384 4.12417 10.9362 5.5955 10.1322L17.1182 3.83495C18.9793 2.81782 20.4849 1.99496 21.7838 1.43553C23.1335 0.854227 24.3838 0.5 25.75 0.5C27.1162 0.5 28.3665 0.854227 29.7162 1.43553C31.0151 1.99496 32.5208 2.81783 34.3818 3.83497L45.9045 10.1322C47.3758 10.9362 48.661 11.6384 49.5668 12.3314C50.5297 13.0681 51.4448 14.0789 51.4976 15.5822C51.5503 17.0802 50.7141 18.1563 49.8112 18.9667C48.9586 19.7318 47.7285 20.5384 46.3162 21.4644L46.1271 21.5885L44.3139 22.5435V33.4915C44.3139 39.1609 41.5693 44.4783 36.9839 47.4589L33.6304 49.6387C28.7871 52.7869 22.7128 52.7869 17.8694 49.6387L14.516 47.4589C9.93061 44.4783 7.18603 39.1609 7.18603 33.4915V22.5434ZM18.766 7.02897C20.7201 5.96104 22.0788 5.22055 23.2051 4.73549C24.298 4.26479 25.0455 4.09301 25.75 4.09301C26.4545 4.09301 27.202 4.26479 28.2949 4.73549C29.4212 5.22055 30.7799 5.96104 32.734 7.02897L44.0571 13.2172C45.6898 14.1095 46.7245 14.6808 47.3836 15.1851C47.696 15.4241 47.8286 15.5791 47.8817 15.6589C47.8978 15.6832 47.9044 15.6973 47.9065 15.7023L47.9068 15.7084L47.9064 15.7178L47.9028 15.7275C47.8995 15.7356 47.8932 15.7494 47.882 15.7693C47.8321 15.8579 47.7077 16.0267 47.4113 16.2926C46.7967 16.8443 45.8233 17.4907 44.3004 18.4896L42.335 19.5248C37.4923 18.0871 31.8085 17.2674 25.7499 17.2674C19.6915 17.2674 14.0077 18.0871 9.16494 19.5248L7.19958 18.4896C5.67673 17.4907 4.70334 16.8443 4.08867 16.2926C3.79231 16.0267 3.66786 15.8579 3.61796 15.7693C3.60678 15.7494 3.60054 15.7356 3.59724 15.7275C3.59464 15.7212 3.59315 15.7162 3.59315 15.7162L3.59316 15.7084L3.59351 15.7023C3.59559 15.6973 3.60218 15.6832 3.61834 15.6589C3.67143 15.5791 3.804 15.4241 4.11638 15.1851C4.77549 14.6808 5.81024 14.1095 7.44288 13.2172L18.766 7.02897ZM10.779 22.7983V27.4604C15.2521 26.3018 20.3523 25.6511 25.7499 25.6511C31.1476 25.6511 36.2478 26.3018 40.7208 27.4604V22.7983C36.3685 21.5735 31.2483 20.8604 25.7499 20.8604C20.2516 20.8604 15.1314 21.5735 10.779 22.7983ZM25.7499 29.2441C31.2483 29.2441 36.3685 29.9572 40.7208 31.182V33.4915C40.7208 38.0312 38.5211 42.1743 35.0257 44.4464L31.6723 46.6262C28.0197 49.0004 23.4802 49.0004 19.8276 46.6262L16.4741 44.4464C12.9788 42.1744 10.779 38.0312 10.779 33.4915V31.182C15.1314 29.9572 20.2516 29.2441 25.7499 29.2441Z" fill="white"/>
</svg>
