<svg width="49" height="47" viewBox="0 0 49 47" fill="none" xmlns="http://www.w3.org/2000/svg">
<path d="M32.375 23.375C32.375 27.7242 28.8492 31.25 24.5 31.25C20.1508 31.25 16.625 27.7242 16.625 23.375C16.625 19.0258 20.1508 15.5 24.5 15.5C28.8492 15.5 32.375 19.0258 32.375 23.375Z" stroke="white" stroke-width="3.5"/>
<path d="M47 27.8005V18.9497C40.5724 18.9497 36.3928 11.9684 39.647 6.42555L31.8528 2.00022C28.5586 7.61161 20.4451 7.61139 17.1507 2L9.35644 6.42532C12.6107 11.9683 8.42764 18.9497 2 18.9497V27.8005C8.42753 27.8005 12.6071 34.7818 9.35289 40.3247L17.1471 44.75C20.443 39.1358 28.5603 39.1356 31.8564 44.7498L39.6506 40.3245C36.3967 34.7816 40.5726 27.8005 47 27.8005Z" stroke="white" stroke-width="3.5" stroke-linecap="round" stroke-linejoin="round"/>
</svg>
