<svg width="42" height="52" viewBox="0 0 42 52" fill="none" xmlns="http://www.w3.org/2000/svg">
<path d="M10.1429 5.23477C19.574 -1.17279 33.198 2.29526 38.1715 12.4928M18.2856 49.3185C29.5118 50.8827 40 42.1261 40 30.9995V21.7916M10.1429 46.1888C5.22055 42.8445 2 37.2885 2 30.9995V20.4242C2 17.6105 2.64467 14.9435 3.79797 12.5555" stroke="white" stroke-width="3.5" stroke-linecap="round" stroke-linejoin="round"/>
<path d="M30.4961 30.025C30.4961 35.534 26.2427 40 20.9961 40C15.7494 40 11.4961 35.534 11.4961 30.025V21.475C11.4961 19.9451 11.8241 18.4957 12.4103 17.2M20.9961 11.5C26.2427 11.5 30.4961 15.9659 30.4961 21.475" stroke="white" stroke-width="3.5" stroke-linecap="round" stroke-linejoin="round"/>
<path d="M21 22.1875V29.3125" stroke="white" stroke-width="3.5" stroke-linecap="round" stroke-linejoin="round"/>
</svg>
