<svg width="49" height="49" viewBox="0 0 49 49" fill="none" xmlns="http://www.w3.org/2000/svg">
<path d="M9.91789 20.5852L12.0062 21.6294C12.7685 22.0106 13.25 22.7898 13.25 23.6418V34.3608C13.25 35.2129 12.7685 35.9921 12.0062 36.3732L9.91789 37.4175C9.19568 37.7786 8.33467 37.725 7.69727 37.2294C5.79951 35.7536 2 32.3775 2 29.0013C2 25.6252 5.79951 22.2491 7.69727 20.7733C8.33467 20.2776 9.19568 20.2241 9.91789 20.5852Z" stroke="white" stroke-width="3.5" stroke-linecap="round" stroke-linejoin="round"/>
<path d="M6.49609 21.125V20C6.49609 10.0589 14.555 2 24.4961 2C34.4373 2 42.4961 10.0589 42.4961 20V21.125" stroke="white" stroke-width="3.5" stroke-linecap="round" stroke-linejoin="round"/>
<path d="M42.5 36.875V38C42.5 42.9705 38.4705 47 33.5 47H24.5" stroke="white" stroke-width="3.5" stroke-linecap="round" stroke-linejoin="round"/>
<path d="M41.3028 20.7733C40.6653 20.2776 39.8043 20.2241 39.082 20.5852L36.9938 21.6294C36.2315 22.0106 35.75 22.7898 35.75 23.6418V34.3608C35.75 35.2129 36.2315 35.9921 36.9938 36.3732L39.082 37.4175C39.8043 37.7786 40.6653 37.725 41.3028 37.2294C43.2004 35.7536 47 32.3775 47 29.0013C47 25.6252 43.2004 22.2491 41.3028 20.7733Z" stroke="white" stroke-width="3.5" stroke-linecap="round" stroke-linejoin="round"/>
</svg>
