<svg width="49" height="49" viewBox="0 0 49 49" fill="none" xmlns="http://www.w3.org/2000/svg">
<path fill-rule="evenodd" clip-rule="evenodd" d="M29.0088 3.47156e-07H19.7412C16.1073 -1.9028e-05 13.245 -3.44242e-05 10.9675 0.24003C8.63914 0.485459 6.72684 0.997022 5.07618 2.15283C3.93868 2.94931 2.94931 3.93868 2.15283 5.07618C0.997022 6.72684 0.485459 8.63914 0.24003 10.9675C-3.44242e-05 13.245 -1.9028e-05 16.1073 3.47156e-07 19.7412V19.939C-1.9028e-05 23.5729 -3.44242e-05 26.4352 0.24003 28.7127C0.485459 31.0411 0.997022 32.9534 2.15283 34.6041C2.94931 35.7416 3.93868 36.7309 5.07618 37.5274C6.72684 38.6832 8.63914 39.1948 10.9675 39.4402C13.1168 39.6668 15.7869 39.6795 19.1348 39.6802C19.5171 41.6234 19.0949 43.7071 18.0635 45.0764L17.8583 45.3488H13.0378C12.0986 45.3488 11.3372 46.1102 11.3372 47.0494C11.3372 47.9886 12.0986 48.75 13.0378 48.75H35.7122C36.6514 48.75 37.4128 47.9886 37.4128 47.0494C37.4128 46.1102 36.6514 45.3488 35.7122 45.3488H30.8919L30.6867 45.0764C29.6553 43.7071 29.2331 41.6234 29.6154 39.6802C32.9632 39.6795 35.6332 39.6668 37.7825 39.4402C40.1109 39.1948 42.0232 38.6832 43.6738 37.5274C44.8113 36.7309 45.8007 35.7416 46.5972 34.6041C47.753 32.9534 48.2645 31.0411 48.51 28.7127C48.75 26.4352 48.75 23.573 48.75 19.9391V19.7412C48.75 16.1073 48.75 13.245 48.51 10.9675C48.2645 8.63914 47.753 6.72684 46.5972 5.07618C45.8007 3.93868 44.8113 2.94931 43.6738 2.15283C42.0232 0.997022 40.1109 0.485459 37.7825 0.24003C35.505 -3.44242e-05 32.6427 -1.9028e-05 29.0088 3.47156e-07ZM26.9381 45.3488C26.1762 43.6127 25.9157 41.6075 26.1713 39.6802H22.5789C22.8345 41.6075 22.574 43.6127 21.8121 45.3488H26.9381ZM20.3709 36.2791C20.3998 36.2783 20.4286 36.2783 20.4573 36.2791H28.2929C28.3216 36.2783 28.3504 36.2783 28.3793 36.2791H28.9099C32.6644 36.2791 35.3475 36.2769 37.4259 36.0578C39.4741 35.8419 40.7383 35.4308 41.723 34.7413C42.5355 34.1724 43.2422 33.4657 43.8111 32.6532C44.5006 31.6686 44.9117 30.4043 45.1275 28.3562C45.3466 26.2777 45.3488 23.5946 45.3488 19.8401C45.3488 16.0856 45.3466 13.4025 45.1275 11.3241C44.9117 9.2759 44.5006 8.01168 43.8111 7.027C43.2422 6.21451 42.5355 5.50781 41.723 4.9389C40.7383 4.24942 39.4741 3.83835 37.4259 3.62245C35.3475 3.40337 32.6644 3.40116 28.9099 3.40116H19.8401C16.0856 3.40116 13.4025 3.40337 11.3241 3.62245C9.2759 3.83835 8.01168 4.24942 7.027 4.9389C6.21451 5.50782 5.50782 6.21451 4.9389 7.027C4.24942 8.01168 3.83835 9.2759 3.62245 11.3241C3.40337 13.4025 3.40116 16.0856 3.40116 19.8401C3.40116 23.5946 3.40337 26.2777 3.62245 28.3562C3.83835 30.4043 4.24942 31.6686 4.9389 32.6532C5.50782 33.4657 6.21451 34.1724 7.027 34.7413C8.01168 35.4308 9.2759 35.8419 11.3241 36.0578C13.4025 36.2769 16.0856 36.2791 19.8401 36.2791H20.3709Z" fill="white"/>
<path d="M32.2243 8.5H16.6045C14.6138 8.5 13 10.1138 13 12.1045V27.7243C13 29.715 14.6138 31.3288 16.6045 31.3288H32.2243C34.215 31.3288 35.8288 29.715 35.8288 27.7243V12.1045C35.8288 10.1138 34.215 8.5 32.2243 8.5Z" stroke="white" stroke-width="2.5" stroke-linejoin="round"/>
<path d="M26.1133 13.9062H30.9193" stroke="white" stroke-width="2" stroke-linecap="round" stroke-linejoin="round"/>
<path d="M20 15.5C20.8284 15.5 21.5 14.8284 21.5 14C21.5 13.1716 20.8284 12.5 20 12.5C19.1716 12.5 18.5 13.1716 18.5 14C18.5 14.8284 19.1716 15.5 20 15.5Z" stroke="white" stroke-width="1.6" stroke-linecap="round" stroke-linejoin="round"/>
<path d="M13.6055 19.9219H35.2328" stroke="white" stroke-width="2.5" stroke-linejoin="round"/>
<path d="M26.1133 25.9062H30.9193" stroke="white" stroke-width="2" stroke-linecap="round" stroke-linejoin="round"/>
<path d="M20 27.5C20.8284 27.5 21.5 26.8284 21.5 26C21.5 25.1716 20.8284 24.5 20 24.5C19.1716 24.5 18.5 25.1716 18.5 26C18.5 26.8284 19.1716 27.5 20 27.5Z" stroke="white" stroke-width="1.6" stroke-linecap="round" stroke-linejoin="round"/>
</svg>
