<svg width="47" height="47" viewBox="0 0 47 47" fill="none" xmlns="http://www.w3.org/2000/svg">
<path d="M42.8495 20.2811V13.8312C42.8495 11.4564 40.9244 9.53125 38.5496 9.53125H6.29995C3.92515 9.53125 2 11.4564 2 13.8312V38.5559C2 40.9308 3.92515 42.8558 6.29995 42.8558H19.1998" stroke="white" stroke-width="3" stroke-linecap="round" stroke-linejoin="round"/>
<path d="M31.0279 9.52491L29.3234 3.55933C29.0598 2.63635 28.2162 2 27.2562 2H17.5998C16.6399 2 15.7963 2.63635 15.5326 3.55933L13.8281 9.52491" stroke="white" stroke-width="3" stroke-linejoin="round"/>
<path d="M35.3311 39.6848H35.3485M35.3501 35.3311L35.3311 32.1062M45.006 35.3311C45.006 40.6745 40.6745 45.006 35.3311 45.006C29.9878 45.006 25.6562 40.6745 25.6562 35.3311C25.6562 29.9878 29.9878 25.6562 35.3311 25.6562C40.6745 25.6562 45.006 29.9878 45.006 35.3311Z" stroke="white" stroke-width="3" stroke-linecap="round"/>
</svg>
