<svg width="43" height="46" viewBox="0 0 43 46" fill="none" xmlns="http://www.w3.org/2000/svg">
<path fill-rule="evenodd" clip-rule="evenodd" d="M11.0001 2.5346C11.0001 1.68706 10.3285 1 9.5001 1C8.67167 1 8.00009 1.68706 8.00009 2.5346V3.83346C6.39055 4.30017 5.03305 5.0587 3.90312 6.3084C2.34728 8.02917 1.65571 10.2033 1.3245 12.9279C0.999961 15.5977 0.999979 19.0192 1 23.3847V24.6532C0.999979 29.0188 0.999961 32.4402 1.3245 35.11C1.65571 37.8346 2.34728 40.0088 3.90312 41.7295C5.39966 43.3847 7.29718 44.1799 9.65538 44.5748C11.958 44.9604 14.8661 44.9887 18.4991 44.9915C19.3275 44.9922 19.9996 44.3056 20.0002 43.4581C20.0009 42.6106 19.3298 41.923 18.5014 41.9223C14.8012 41.9194 12.1551 41.8834 10.14 41.5459C8.18047 41.2177 6.99659 40.631 6.10545 39.6454C5.15702 38.5965 4.59647 37.1569 4.3016 34.7312C4.00277 32.2729 4.00004 29.0423 4.00004 24.5443V23.4936C4.00004 20.6445 4.00113 18.3039 4.07788 16.346H38.9225C38.9849 17.9395 38.9977 19.7928 39 21.9744C39.0008 22.822 39.6731 23.5083 40.5015 23.5074C41.33 23.5066 42.0009 22.8188 42 21.9712C41.996 18.0426 41.9622 14.9233 41.6138 12.4536C41.2605 9.94938 40.5617 7.928 39.0974 6.3084C37.9675 5.0587 36.61 4.30017 35.0004 3.83346V2.5346C35.0004 1.68706 34.3288 1 33.5004 1C32.672 1 32.0004 1.68706 32.0004 2.5346V3.28327C29.7282 3.04607 26.9323 3.0461 23.5218 3.04613H19.4787C16.0682 3.0461 13.2723 3.04607 11.0001 3.28327V2.5346ZM38.6953 13.2768C38.6792 13.1463 38.6623 13.0181 38.6445 12.892C38.3374 10.7147 37.7883 9.38047 36.8951 8.39251C36.3764 7.81885 35.7578 7.37966 34.9432 7.04805C34.7643 7.6908 34.1861 8.16146 33.5004 8.16146C32.672 8.16146 32.0004 7.47439 32.0004 6.62686V6.37025C29.8783 6.11852 27.1356 6.11533 23.4003 6.11533H19.6002C15.8649 6.11533 13.1222 6.11852 11.0001 6.37025V6.62686C11.0001 7.47439 10.3285 8.16146 9.5001 8.16146C8.81444 8.16146 8.23622 7.6908 8.05729 7.04804C7.24266 7.37965 6.62413 7.81885 6.10545 8.39251C5.16093 9.43716 4.60109 10.8692 4.30526 13.2768H38.6953Z" fill="white"/>
<path fill-rule="evenodd" clip-rule="evenodd" d="M24.8346 44.4967C25.1526 44.732 25.6746 45 26.4047 45L26.4027 44.998C27.0147 44.998 27.7747 44.8077 28.6807 44.2491L31.3367 42.6328C31.4107 42.6062 31.5727 42.606 31.6487 42.6306L34.3047 44.2451C36.3008 45.4707 37.5788 44.9264 38.1628 44.4927C38.7488 44.0568 39.6548 42.9785 39.1308 40.6418L38.4968 37.8244C38.4908 37.7507 38.5308 37.5971 38.5728 37.5336L40.7888 35.2379C41.8288 34.178 42.2228 32.9176 41.8728 31.7841C41.5228 30.6505 40.4908 29.8505 39.0328 29.5907L36.1768 29.1015C36.1168 29.079 36.0128 29.0035 35.9708 28.9503L34.3968 25.6988C33.7307 24.3095 32.6747 23.5095 31.5007 23.5074H31.4947C30.3227 23.5074 29.2627 24.3055 28.5867 25.6968L27.0127 28.9503C26.9727 29.0035 26.8707 29.0792 26.8087 29.1037L23.9506 29.5927C22.5066 29.8505 21.4786 30.6486 21.1266 31.7801C20.7746 32.9136 21.1666 34.1718 22.1966 35.2317L24.4206 37.5358C24.4646 37.5993 24.5046 37.7567 24.4986 37.8202L23.8626 40.646C23.3406 42.9827 24.2466 44.0608 24.8346 44.4967ZM24.3266 33.0711C24.1926 32.932 24.1106 32.8173 24.0606 32.7334C24.1466 32.6945 24.2746 32.6517 24.4546 32.6189L27.3287 32.1278C28.2927 31.962 29.2667 31.2214 29.6927 30.3334L31.2767 27.0616C31.3587 26.8959 31.4347 26.7772 31.4967 26.6953C31.5567 26.7751 31.6307 26.8938 31.7087 27.0554C31.7107 27.0574 31.7107 27.0596 31.7107 27.0596L33.2927 30.3292C33.7227 31.2234 34.7028 31.9641 35.6708 32.1278L38.5328 32.6169C38.7208 32.6497 38.8528 32.6945 38.9408 32.7334C38.8888 32.8173 38.8048 32.9341 38.6668 33.0753L36.4388 35.3832C35.7048 36.1382 35.3468 37.4069 35.5688 38.4648C35.5688 38.473 35.5728 38.4872 35.5728 38.4872L36.2128 41.3294C36.2588 41.5381 36.2808 41.7077 36.2888 41.8387C36.1708 41.7916 36.0248 41.7201 35.8488 41.6117L33.1407 39.9666C32.1987 39.4101 30.8227 39.4079 29.8687 39.9604C29.865 39.9633 29.859 39.9671 29.8538 39.9703L29.8427 39.9768L27.1427 41.6179C26.9707 41.7243 26.8267 41.7958 26.7107 41.8429C26.7187 41.7119 26.7407 41.5421 26.7867 41.3334L27.4267 38.4893C27.4267 38.4853 27.4277 38.4817 27.4287 38.4781L27.4298 38.4737C27.4303 38.4715 27.4307 38.4692 27.4307 38.4668C27.6527 37.4069 27.2947 36.1404 26.5627 35.3874L24.3266 33.0711Z" fill="white"/>
<path fill-rule="evenodd" clip-rule="evenodd" d="M11.0001 2.5346C11.0001 1.68706 10.3285 1 9.5001 1C8.67167 1 8.00009 1.68706 8.00009 2.5346V3.83346C6.39055 4.30017 5.03305 5.0587 3.90312 6.3084C2.34728 8.02917 1.65571 10.2033 1.3245 12.9279C0.999961 15.5977 0.999979 19.0192 1 23.3847V24.6532C0.999979 29.0188 0.999961 32.4402 1.3245 35.11C1.65571 37.8346 2.34728 40.0088 3.90312 41.7295C5.39966 43.3847 7.29718 44.1799 9.65538 44.5748C11.958 44.9604 14.8661 44.9887 18.4991 44.9915C19.3275 44.9922 19.9996 44.3056 20.0002 43.4581C20.0009 42.6106 19.3298 41.923 18.5014 41.9223C14.8012 41.9194 12.1551 41.8834 10.14 41.5459C8.18047 41.2177 6.99659 40.631 6.10545 39.6454C5.15702 38.5965 4.59647 37.1569 4.3016 34.7312C4.00277 32.2729 4.00004 29.0423 4.00004 24.5443V23.4936C4.00004 20.6445 4.00113 18.3039 4.07788 16.346H38.9225C38.9849 17.9395 38.9977 19.7928 39 21.9744C39.0008 22.822 39.6731 23.5083 40.5015 23.5074C41.33 23.5066 42.0009 22.8188 42 21.9712C41.996 18.0426 41.9622 14.9233 41.6138 12.4536C41.2605 9.94938 40.5617 7.928 39.0974 6.3084C37.9675 5.0587 36.61 4.30017 35.0004 3.83346V2.5346C35.0004 1.68706 34.3288 1 33.5004 1C32.672 1 32.0004 1.68706 32.0004 2.5346V3.28327C29.7282 3.04607 26.9323 3.0461 23.5218 3.04613H19.4787C16.0682 3.0461 13.2723 3.04607 11.0001 3.28327V2.5346ZM38.6953 13.2768C38.6792 13.1463 38.6623 13.0181 38.6445 12.892C38.3374 10.7147 37.7883 9.38047 36.8951 8.39251C36.3764 7.81885 35.7578 7.37966 34.9432 7.04805C34.7643 7.6908 34.1861 8.16146 33.5004 8.16146C32.672 8.16146 32.0004 7.47439 32.0004 6.62686V6.37025C29.8783 6.11852 27.1356 6.11533 23.4003 6.11533H19.6002C15.8649 6.11533 13.1222 6.11852 11.0001 6.37025V6.62686C11.0001 7.47439 10.3285 8.16146 9.5001 8.16146C8.81444 8.16146 8.23622 7.6908 8.05729 7.04804C7.24266 7.37965 6.62413 7.81885 6.10545 8.39251C5.16093 9.43716 4.60109 10.8692 4.30526 13.2768H38.6953Z" stroke="white" stroke-width="0.4" stroke-linecap="round" stroke-linejoin="round"/>
<path fill-rule="evenodd" clip-rule="evenodd" d="M24.8346 44.4967C25.1526 44.732 25.6746 45 26.4047 45L26.4027 44.998C27.0147 44.998 27.7747 44.8077 28.6807 44.2491L31.3367 42.6328C31.4107 42.6062 31.5727 42.606 31.6487 42.6306L34.3047 44.2451C36.3008 45.4707 37.5788 44.9264 38.1628 44.4927C38.7488 44.0568 39.6548 42.9785 39.1308 40.6418L38.4968 37.8244C38.4908 37.7507 38.5308 37.5971 38.5728 37.5336L40.7888 35.2379C41.8288 34.178 42.2228 32.9176 41.8728 31.7841C41.5228 30.6505 40.4908 29.8505 39.0328 29.5907L36.1768 29.1015C36.1168 29.079 36.0128 29.0035 35.9708 28.9503L34.3968 25.6988C33.7307 24.3095 32.6747 23.5095 31.5007 23.5074H31.4947C30.3227 23.5074 29.2627 24.3055 28.5867 25.6968L27.0127 28.9503C26.9727 29.0035 26.8707 29.0792 26.8087 29.1037L23.9506 29.5927C22.5066 29.8505 21.4786 30.6486 21.1266 31.7801C20.7746 32.9136 21.1666 34.1718 22.1966 35.2317L24.4206 37.5358C24.4646 37.5993 24.5046 37.7567 24.4986 37.8202L23.8626 40.646C23.3406 42.9827 24.2466 44.0608 24.8346 44.4967ZM24.3266 33.0711C24.1926 32.932 24.1106 32.8173 24.0606 32.7334C24.1466 32.6945 24.2746 32.6517 24.4546 32.6189L27.3287 32.1278C28.2927 31.962 29.2667 31.2214 29.6927 30.3334L31.2767 27.0616C31.3587 26.8959 31.4347 26.7772 31.4967 26.6953C31.5567 26.7751 31.6307 26.8938 31.7087 27.0554C31.7107 27.0574 31.7107 27.0596 31.7107 27.0596L33.2927 30.3292C33.7227 31.2234 34.7028 31.9641 35.6708 32.1278L38.5328 32.6169C38.7208 32.6497 38.8528 32.6945 38.9408 32.7334C38.8888 32.8173 38.8048 32.9341 38.6668 33.0753L36.4388 35.3832C35.7048 36.1382 35.3468 37.4069 35.5688 38.4648C35.5688 38.473 35.5728 38.4872 35.5728 38.4872L36.2128 41.3294C36.2588 41.5381 36.2808 41.7077 36.2888 41.8387C36.1708 41.7916 36.0248 41.7201 35.8488 41.6117L33.1407 39.9666C32.1987 39.4101 30.8227 39.4079 29.8687 39.9604C29.865 39.9633 29.859 39.9671 29.8538 39.9703L29.8427 39.9768L27.1427 41.6179C26.9707 41.7243 26.8267 41.7958 26.7107 41.8429C26.7187 41.7119 26.7407 41.5421 26.7867 41.3334L27.4267 38.4893C27.4267 38.4853 27.4277 38.4817 27.4287 38.4781L27.4298 38.4737C27.4303 38.4715 27.4307 38.4692 27.4307 38.4668C27.6527 37.4069 27.2947 36.1404 26.5627 35.3874L24.3266 33.0711Z" stroke="white" stroke-width="0.4" stroke-linecap="round" stroke-linejoin="round"/>
</svg>
