<svg width="45" height="41" viewBox="0 0 45 41" fill="none" xmlns="http://www.w3.org/2000/svg">
<path d="M9.94187 28.7791C8.78592 28.7791 7.84885 29.7162 7.84885 30.8721C7.84885 32.0281 8.78592 32.9652 9.94187 32.9652H9.96067C11.1166 32.9652 12.0537 32.0281 12.0537 30.8721C12.0537 29.7162 11.1166 28.7791 9.96067 28.7791H9.94187Z" fill="white"/>
<path d="M32.5789 30.7763C32.2797 29.6597 32.9423 28.512 34.0589 28.2129L34.0771 28.208C35.1936 27.9088 36.3413 28.5714 36.6405 29.688C36.9397 30.8045 36.277 31.9522 35.1605 32.2514L35.1423 32.2563C34.0258 32.5555 32.8781 31.8928 32.5789 30.7763Z" fill="white"/>
<path fill-rule="evenodd" clip-rule="evenodd" d="M10.0076 5.39422e-07H9.87611C8.46673 -1.72343e-05 7.31406 -3.17733e-05 6.3773 0.0765044C5.40769 0.155725 4.53197 0.324706 3.71414 0.741412C2.4342 1.39357 1.39357 2.4342 0.741411 3.71414C0.324706 4.53197 0.155725 5.40769 0.0765044 6.37731C-3.17733e-05 7.31406 -1.72343e-05 8.4667 5.39419e-07 9.87609V30.9379C-1.72343e-05 32.3473 -3.17733e-05 33.4999 0.0765044 34.4367C0.155725 35.4063 0.324706 36.282 0.741411 37.0999C1.39357 38.3798 2.4342 39.4204 3.71414 40.0726C4.53197 40.4893 5.40769 40.6583 6.3773 40.7375C7.31406 40.814 8.46669 40.814 9.87607 40.814H10.0077C11.4171 40.814 12.5697 40.814 13.5064 40.7375C14.4761 40.6583 15.3518 40.4893 16.1696 40.0726C17.4495 39.4204 18.4902 38.3798 19.1423 37.0999C19.559 36.282 19.728 35.4063 19.8072 34.4367C19.8838 33.5 19.8838 32.3473 19.8837 30.938L19.8837 13.2056L25.1515 32.9472C25.5086 34.2854 25.8009 35.3811 26.1111 36.2523C26.4322 37.1543 26.8152 37.9465 27.4201 38.6211C28.3654 39.6754 29.6198 40.4031 31.004 40.6985C31.8902 40.8877 32.7672 40.8244 33.7068 40.6525C34.6139 40.4865 35.7056 40.1927 37.0376 39.8343L37.1647 39.8001C38.4967 39.4417 39.5888 39.1479 40.4569 38.8363C41.3564 38.5134 42.1466 38.128 42.8189 37.5201C43.8691 36.5706 44.5921 35.3124 44.8854 33.9265C45.0731 33.04 45.0105 32.1622 44.8395 31.2198C44.6743 30.3097 44.382 29.2142 44.0249 27.8761L38.6857 7.86678C38.3287 6.52856 38.0363 5.43289 37.7262 4.56166C37.4051 3.65967 37.022 2.8674 36.4172 2.19288C35.4718 1.13855 34.2174 0.410889 32.8332 0.115452C31.947 -0.0737142 31.0701 -0.0104922 30.1304 0.161485C29.2233 0.327503 28.1316 0.621253 26.7995 0.979705L26.6724 1.01389C25.3402 1.37232 24.2486 1.66604 23.3804 1.9777C22.4808 2.3006 21.6907 2.68592 21.0183 3.29383C20.4517 3.80613 19.9804 4.40825 19.6204 5.07179C19.5151 4.59931 19.3637 4.14856 19.1423 3.71414C18.4902 2.4342 17.4495 1.39357 16.1696 0.741412C15.3518 0.324706 14.4761 0.155725 13.5064 0.0765044C12.5697 -3.17733e-05 11.417 -1.72343e-05 10.0076 5.39422e-07ZM3.13954 30.8721V11.5116H16.7442V30.8721C16.7442 32.3633 16.743 33.3872 16.6781 34.181C16.6148 34.9565 16.4986 35.3731 16.345 35.6745C15.9938 36.3637 15.4335 36.9241 14.7443 37.2752C14.4428 37.4288 14.0262 37.545 13.2508 37.6084C12.457 37.6732 11.433 37.6745 9.94187 37.6745C8.45071 37.6745 7.42675 37.6732 6.63296 37.6084C5.8575 37.545 5.44094 37.4288 5.13946 37.2752C4.45026 36.9241 3.88992 36.3637 3.53876 35.6745C3.38515 35.3731 3.26897 34.9565 3.20562 34.181C3.14076 33.3872 3.13954 32.3633 3.13954 30.8721ZM3.14402 8.3721H16.7397C16.7332 7.67404 16.7172 7.11165 16.6781 6.63296C16.6148 5.8575 16.4986 5.44094 16.345 5.13946C15.9938 4.45026 15.4335 3.88992 14.7443 3.53876C14.4428 3.38515 14.0262 3.26897 13.2508 3.20562C12.457 3.14076 11.433 3.13954 9.94187 3.13954C8.45071 3.13954 7.42675 3.14076 6.63296 3.20562C5.8575 3.26897 5.44094 3.38515 5.13946 3.53876C4.45026 3.88992 3.88992 4.45026 3.53876 5.13946C3.38515 5.44094 3.26897 5.8575 3.20562 6.63296C3.16651 7.11165 3.15054 7.67404 3.14402 8.3721ZM27.5516 4.02852C28.9629 3.6488 29.9301 3.38982 30.6956 3.24973C31.4429 3.11296 31.8607 3.11813 32.1779 3.18583C32.9109 3.34228 33.5768 3.72794 34.0797 4.2888C34.2981 4.53239 34.5123 4.89513 34.7685 5.61458C34.8644 5.88417 34.9602 6.18522 35.0615 6.52806L22.399 10.4245C22.2631 9.88423 22.1591 9.43175 22.0868 9.03351C21.9504 8.28196 21.9551 7.85951 22.0233 7.5376C22.1799 6.79755 22.5656 6.12737 23.1239 5.6226C23.3659 5.40384 23.7259 5.18935 24.4411 4.93262C25.1738 4.66959 26.1404 4.40823 27.5516 4.02852ZM23.2016 13.4623L28.168 32.0746C28.5461 33.4914 28.8066 34.4628 29.0688 35.1994C29.3249 35.9188 29.5391 36.2816 29.7575 36.5251C30.2604 37.086 30.9264 37.4717 31.6593 37.6281C31.9765 37.6958 32.3943 37.701 33.1416 37.5642C33.9071 37.4241 34.8743 37.1652 36.2856 36.7854C37.6968 36.4057 38.6634 36.1444 39.3961 35.8813C40.1113 35.6246 40.4714 35.4101 40.7133 35.1913C41.2716 34.6866 41.6573 34.0164 41.8139 33.2764C41.8821 32.9544 41.8868 32.532 41.7504 31.7804C41.6107 31.0109 41.3526 30.0388 40.9746 28.622L35.8878 9.55863L23.2016 13.4623Z" fill="white"/>
</svg>
