<svg width="49" height="43" viewBox="0 0 49 43" fill="none" xmlns="http://www.w3.org/2000/svg">
<path d="M36.022 40.9057V39.0067C36.022 37.7247 35.5707 36.4603 34.5992 35.6238C31.8528 33.259 28.27 31.8281 24.3509 31.8281C20.4317 31.8281 16.849 33.259 14.1026 35.6238C13.1311 36.4603 12.6797 37.7247 12.6797 39.0067V40.9057" stroke="white" stroke-width="3.5" stroke-linecap="round" stroke-linejoin="round"/>
<path d="M24.3473 25.3508C27.9283 25.3508 30.8313 22.4478 30.8313 18.8668C30.8313 15.2858 27.9283 12.3828 24.3473 12.3828C20.7663 12.3828 17.8633 15.2858 17.8633 18.8668C17.8633 22.4478 20.7663 25.3508 24.3473 25.3508Z" stroke="white" stroke-width="3.5"/>
<path d="M36.3242 18.8594C39.8287 18.8594 43.0307 20.3074 45.4775 22.6976C46.3204 23.5211 46.6986 24.6887 46.6986 25.867V27.937" stroke="white" stroke-width="3.5" stroke-linecap="round" stroke-linejoin="round"/>
<path d="M36.3239 12.3744C39.1887 12.3744 41.5111 10.052 41.5111 7.18719C41.5111 4.32238 39.1887 2 36.3239 2C33.4591 2 31.1367 4.32238 31.1367 7.18719C31.1367 10.052 33.4591 12.3744 36.3239 12.3744Z" stroke="white" stroke-width="3.5"/>
<path d="M12.3744 18.8594C8.86991 18.8594 5.66794 20.3074 3.22104 22.6976C2.37804 23.5211 2 24.6887 2 25.867V27.937" stroke="white" stroke-width="3.5" stroke-linecap="round" stroke-linejoin="round"/>
<path d="M12.3786 12.3744C15.2434 12.3744 17.5658 10.052 17.5658 7.18719C17.5658 4.32238 15.2434 2 12.3786 2C9.51379 2 7.19141 4.32238 7.19141 7.18719C7.19141 10.052 9.51379 12.3744 12.3786 12.3744Z" stroke="white" stroke-width="3.5"/>
</svg>
