<svg width="49" height="44" viewBox="0 0 49 44" fill="none" xmlns="http://www.w3.org/2000/svg">
<path d="M2 2V31.8466H46.9995V2H2Z" stroke="white" stroke-width="2.8" stroke-linecap="round" stroke-linejoin="round"/>
<path d="M2 16.6955H16.6738M46.9995 16.6955H16.6738M16.6738 2.46094V16.6955" stroke="white" stroke-width="2.8" stroke-linecap="round" stroke-linejoin="round"/>
<path d="M31.3477 2V24.0406M31.3477 31.8466V24.0406M31.3477 24.0406H46.9997" stroke="white" stroke-width="2.8" stroke-linecap="round" stroke-linejoin="round"/>
<path d="M10.7006 30.4401C8.67954 31.9873 3.38038 35.1466 6.60792 39.1002C8.18455 41.0313 9.94051 42.4125 12.1482 42.4125H24.7455C26.9532 42.4125 28.7092 41.0313 30.2858 39.1002C33.5133 35.1466 28.2142 31.9873 26.1931 30.4401C21.4537 26.8116 15.44 26.8116 10.7006 30.4401Z" fill="#9DB73B" stroke="white" stroke-width="2.8" stroke-linecap="round" stroke-linejoin="round"/>
<path d="M24.7032 16.6367C24.7032 20.1554 21.8507 23.0078 18.332 23.0078C14.8134 23.0078 11.9609 20.1554 11.9609 16.6367C11.9609 13.1181 14.8134 10.2656 18.332 10.2656C21.8507 10.2656 24.7032 13.1181 24.7032 16.6367Z" fill="#9DB73B" stroke="white" stroke-width="2.8"/>
</svg>
