<svg width="46" height="46" viewBox="0 0 46 46" fill="none" xmlns="http://www.w3.org/2000/svg">
<path d="M23.0547 27.3828V45.05" stroke="white" stroke-width="3.5"/>
<path d="M23.5204 22.1189C29.076 22.1189 33.5798 17.6151 33.5798 12.0594C33.5798 6.50377 29.076 2 23.5204 2M23.5204 22.1189C17.9647 22.1189 13.4609 17.6151 13.4609 12.0594C13.4609 6.50377 17.9647 2 23.5204 2M23.5204 22.1189C25.7427 22.1189 27.5441 17.6151 27.5441 12.0594C27.5441 6.50377 25.7427 2 23.5204 2M23.5204 22.1189C21.298 22.1189 19.4966 17.6151 19.4966 12.0594C19.4966 6.50377 21.298 2 23.5204 2" stroke="white" stroke-width="2.5" stroke-linecap="round" stroke-linejoin="round"/>
<path d="M37.9737 7.99739L44.0821 6.35045C44.0955 6.34639 44.1092 6.3565 44.1092 6.37058V37.7649L23.1588 44.1245L2 37.8018V6.25541C2 6.24122 2.01375 6.23112 2.02731 6.23535L8.48634 7.99739" stroke="white" stroke-width="3.5"/>
</svg>
