<svg width="45" height="45" viewBox="0 0 45 45" fill="none" xmlns="http://www.w3.org/2000/svg">
<path d="M10.4385 32.9878C10.4385 32.119 11.1428 31.4146 12.0117 31.4146H14.1092C14.9781 31.4146 15.6824 32.119 15.6824 32.9878C15.6824 33.8566 14.9781 34.561 14.1092 34.561H12.0117C11.1428 34.561 10.4385 33.8566 10.4385 32.9878Z" fill="white"/>
<path d="M18.8288 32.9878C18.8288 32.119 19.5331 31.4146 20.4019 31.4146H32.9873C33.8561 31.4146 34.5605 32.119 34.5605 32.9878C34.5605 33.8566 33.8561 34.561 32.9873 34.561H20.4019C19.5331 34.561 18.8288 33.8566 18.8288 32.9878Z" fill="white"/>
<path d="M12.0117 23.0244C11.1428 23.0244 10.4385 23.7287 10.4385 24.5976C10.4385 25.4664 11.1428 26.1707 12.0117 26.1707H14.1092C14.9781 26.1707 15.6824 25.4664 15.6824 24.5976C15.6824 23.7287 14.9781 23.0244 14.1092 23.0244H12.0117Z" fill="white"/>
<path d="M20.4019 23.0244C19.5331 23.0244 18.8288 23.7287 18.8288 24.5976C18.8288 25.4664 19.5331 26.1707 20.4019 26.1707H32.9873C33.8561 26.1707 34.5605 25.4664 34.5605 24.5976C34.5605 23.7287 33.8561 23.0244 32.9873 23.0244H20.4019Z" fill="white"/>
<path fill-rule="evenodd" clip-rule="evenodd" d="M22.6199 1H22.3801C17.7849 0.999972 14.1757 0.99995 11.3578 1.37881C8.47018 1.76704 6.17911 2.57887 4.37899 4.37899C2.57887 6.17911 1.76704 8.47018 1.37881 11.3578C0.99995 14.1757 0.999972 17.7849 1 22.3801V22.6199C0.999972 27.2151 0.99995 30.8243 1.37881 33.6422C1.76704 36.5298 2.57887 38.8209 4.37899 40.621C6.17911 42.4211 8.47018 43.233 11.3578 43.6212C14.1757 44 17.7849 44 22.38 44H22.6199C27.215 44 30.8243 44 33.6422 43.6212C36.5298 43.233 38.8209 42.4211 40.621 40.621C42.4211 38.8209 43.233 36.5298 43.6212 33.6422C44 30.8243 44 27.2151 44 22.62V22.3801C44 17.785 44 14.1757 43.6212 11.3578C43.233 8.47018 42.4211 6.17911 40.621 4.37899C38.8209 2.57887 36.5298 1.76704 33.6422 1.37881C30.8243 0.99995 27.2151 0.999972 22.6199 1ZM6.60379 6.60379C7.72188 5.48569 9.23832 4.83841 11.777 4.49709C14.361 4.14968 17.7587 4.14634 22.5 4.14634C27.2413 4.14634 30.639 4.14968 33.223 4.49709C35.7617 4.83841 37.2781 5.48569 38.3962 6.60379C39.5143 7.72188 40.1616 9.23832 40.5029 11.777C40.5359 12.0227 40.5659 12.2757 40.593 12.5366H4.40704C4.43414 12.2757 4.46406 12.0227 4.49709 11.777C4.83841 9.23832 5.48569 7.72188 6.60379 6.60379ZM4.21006 15.6829C4.1474 17.5934 4.14634 19.8343 4.14634 22.5C4.14634 27.2413 4.14968 30.639 4.49709 33.223C4.83841 35.7617 5.48569 37.2781 6.60379 38.3962C7.72188 39.5143 9.23832 40.1616 11.777 40.5029C14.361 40.8503 17.7587 40.8537 22.5 40.8537C27.2413 40.8537 30.639 40.8503 33.223 40.5029C35.7617 40.1616 37.2781 39.5143 38.3962 38.3962C39.5143 37.2781 40.1616 35.7617 40.5029 33.223C40.8503 30.639 40.8537 27.2413 40.8537 22.5C40.8537 19.8343 40.8526 17.5934 40.7899 15.6829H4.21006Z" fill="white"/>
<path d="M10.4385 32.9878C10.4385 32.119 11.1428 31.4146 12.0117 31.4146H14.1092C14.9781 31.4146 15.6824 32.119 15.6824 32.9878C15.6824 33.8566 14.9781 34.561 14.1092 34.561H12.0117C11.1428 34.561 10.4385 33.8566 10.4385 32.9878Z" stroke="white" stroke-width="0.3" stroke-linecap="round" stroke-linejoin="round"/>
<path d="M18.8288 32.9878C18.8288 32.119 19.5331 31.4146 20.4019 31.4146H32.9873C33.8561 31.4146 34.5605 32.119 34.5605 32.9878C34.5605 33.8566 33.8561 34.561 32.9873 34.561H20.4019C19.5331 34.561 18.8288 33.8566 18.8288 32.9878Z" stroke="white" stroke-width="0.3" stroke-linecap="round" stroke-linejoin="round"/>
<path d="M12.0117 23.0244C11.1428 23.0244 10.4385 23.7287 10.4385 24.5976C10.4385 25.4664 11.1428 26.1707 12.0117 26.1707H14.1092C14.9781 26.1707 15.6824 25.4664 15.6824 24.5976C15.6824 23.7287 14.9781 23.0244 14.1092 23.0244H12.0117Z" stroke="white" stroke-width="0.3" stroke-linecap="round" stroke-linejoin="round"/>
<path d="M20.4019 23.0244C19.5331 23.0244 18.8288 23.7287 18.8288 24.5976C18.8288 25.4664 19.5331 26.1707 20.4019 26.1707H32.9873C33.8561 26.1707 34.5605 25.4664 34.5605 24.5976C34.5605 23.7287 33.8561 23.0244 32.9873 23.0244H20.4019Z" stroke="white" stroke-width="0.3" stroke-linecap="round" stroke-linejoin="round"/>
<path fill-rule="evenodd" clip-rule="evenodd" d="M22.6199 1H22.3801C17.7849 0.999972 14.1757 0.99995 11.3578 1.37881C8.47018 1.76704 6.17911 2.57887 4.37899 4.37899C2.57887 6.17911 1.76704 8.47018 1.37881 11.3578C0.99995 14.1757 0.999972 17.7849 1 22.3801V22.6199C0.999972 27.2151 0.99995 30.8243 1.37881 33.6422C1.76704 36.5298 2.57887 38.8209 4.37899 40.621C6.17911 42.4211 8.47018 43.233 11.3578 43.6212C14.1757 44 17.7849 44 22.38 44H22.6199C27.215 44 30.8243 44 33.6422 43.6212C36.5298 43.233 38.8209 42.4211 40.621 40.621C42.4211 38.8209 43.233 36.5298 43.6212 33.6422C44 30.8243 44 27.2151 44 22.62V22.3801C44 17.785 44 14.1757 43.6212 11.3578C43.233 8.47018 42.4211 6.17911 40.621 4.37899C38.8209 2.57887 36.5298 1.76704 33.6422 1.37881C30.8243 0.99995 27.2151 0.999972 22.6199 1ZM6.60379 6.60379C7.72188 5.48569 9.23832 4.83841 11.777 4.49709C14.361 4.14968 17.7587 4.14634 22.5 4.14634C27.2413 4.14634 30.639 4.14968 33.223 4.49709C35.7617 4.83841 37.2781 5.48569 38.3962 6.60379C39.5143 7.72188 40.1616 9.23832 40.5029 11.777C40.5359 12.0227 40.5659 12.2757 40.593 12.5366H4.40704C4.43414 12.2757 4.46406 12.0227 4.49709 11.777C4.83841 9.23832 5.48569 7.72188 6.60379 6.60379ZM4.21006 15.6829C4.1474 17.5934 4.14634 19.8343 4.14634 22.5C4.14634 27.2413 4.14968 30.639 4.49709 33.223C4.83841 35.7617 5.48569 37.2781 6.60379 38.3962C7.72188 39.5143 9.23832 40.1616 11.777 40.5029C14.361 40.8503 17.7587 40.8537 22.5 40.8537C27.2413 40.8537 30.639 40.8503 33.223 40.5029C35.7617 40.1616 37.2781 39.5143 38.3962 38.3962C39.5143 37.2781 40.1616 35.7617 40.5029 33.223C40.8503 30.639 40.8537 27.2413 40.8537 22.5C40.8537 19.8343 40.8526 17.5934 40.7899 15.6829H4.21006Z" stroke="white" stroke-width="0.3" stroke-linecap="round" stroke-linejoin="round"/>
</svg>
