<svg width="40" height="40" viewBox="0 0 40 40" fill="none" xmlns="http://www.w3.org/2000/svg">
<rect width="40" height="40" rx="20" fill="#1D4154"/>
<path d="M12 27.1238C12 30.1013 13.9036 32 16.8808 32C19.1054 32 20.7656 31.0507 21.817 29.2167L22.8131 27.4798C25.1484 23.3157 29 22.7763 29 17.4254C29 12.3767 25.6465 9 20.6217 9C15.4753 9 12 12.3982 12 17.4686V27.1238ZM13.6712 27.016V17.4686C13.6712 13.3584 16.4492 10.629 20.6217 10.629C24.6504 10.629 27.3288 13.3584 27.3288 17.4254C27.3288 21.9024 23.7317 22.6792 21.319 26.7462L20.3561 28.3536C19.5703 29.6913 18.4746 30.3279 16.9583 30.3279C14.9108 30.3279 13.6712 29.0764 13.6712 27.016ZM16.0286 22.9596C16.4824 22.9596 16.8698 22.5821 16.8698 22.1398V19.7556H19.681C20.4336 19.7556 20.9095 20.1979 20.9095 20.8452C20.9095 21.1797 20.7324 21.6327 20.4668 21.9456L19.1387 23.5746C18.9948 23.758 18.9173 23.9522 18.9173 24.1571C18.9173 24.5995 19.3047 24.9662 19.7585 24.9662C20.013 24.9662 20.2565 24.8368 20.4447 24.6102L21.8835 22.8302C22.3372 22.2692 22.636 21.4493 22.636 20.7805C22.636 19.1947 21.4518 18.1266 19.6588 18.1266H16.8698V17.4038C16.8698 15.3325 18.3529 13.9625 20.6107 13.9625C22.7578 13.9625 24.1413 15.3218 24.1413 17.4038C24.1413 17.8462 24.5176 18.2237 24.9713 18.2237C25.4251 18.2237 25.8125 17.8462 25.8125 17.4038C25.8125 14.3724 23.7317 12.3335 20.6107 12.3335C17.3789 12.3335 15.1985 14.3724 15.1985 17.4038V22.1398C15.1985 22.5821 15.5749 22.9596 16.0286 22.9596Z" fill="white"/>
</svg>
