<svg width="49" height="49" viewBox="0 0 49 49" fill="none" xmlns="http://www.w3.org/2000/svg">
<path fill-rule="evenodd" clip-rule="evenodd" d="M24.218 2.5625C19.8237 2.5625 15.5281 3.86556 11.8744 6.30691C8.22063 8.74826 5.37289 12.2182 3.69126 16.2781C2.00963 20.3379 1.56964 24.8052 2.42692 29.115C3.28421 33.4249 5.40027 37.3838 8.50752 40.491C11.6148 43.5983 15.5736 45.7144 19.8835 46.5716C24.1934 47.4289 28.6607 46.9889 32.7205 45.3073C36.7803 43.6257 40.2503 40.7779 42.6916 37.1242C45.133 33.4705 46.4361 29.1748 46.4361 24.7805H24.218V2.5625Z" stroke="white" stroke-width="3.5" stroke-linecap="round" stroke-linejoin="round"/>
<path fill-rule="evenodd" clip-rule="evenodd" d="M32.4688 16.5315H47.0003C45.9236 13.1201 44.0408 10.0184 41.5113 7.48892C38.9819 4.95943 35.8801 3.07666 32.4688 2V16.5315Z" stroke="white" stroke-width="3" stroke-linecap="round" stroke-linejoin="round"/>
</svg>
