<svg width="45" height="47" viewBox="0 0 45 47" fill="none" xmlns="http://www.w3.org/2000/svg">
<path d="M41.8482 5.20985L30.9458 5.20989V2.40658C30.9458 1.62944 30.3365 1 29.5842 1C28.8319 1 28.2226 1.62944 28.2226 2.40658V5.20919H17.3298V2.40658C17.3298 1.62944 16.7204 1 15.9681 1C15.2159 1 14.6065 1.62944 14.6065 2.40658V5.20919H3.72321C2.21932 5.20919 1 6.46878 1 8.02235V43.1868C1 44.7404 2.21932 46 3.72321 46H41.8482C43.3521 46 44.5714 44.7404 44.5714 43.1868V8.02235C44.5714 6.46944 43.3521 5.20985 41.8482 5.20985ZM41.8482 43.1868H3.72321V8.02235H14.6065V9.43948C14.6065 10.2166 15.2159 10.8461 15.9681 10.8461C16.7204 10.8461 17.3298 10.2166 17.3298 9.43948V8.02305H28.2226V9.44018C28.2226 10.2173 28.8319 10.8468 29.5842 10.8468C30.3365 10.8468 30.9458 10.2173 30.9458 9.44018V8.02305H41.8482V43.1868Z" fill="white" stroke="white" stroke-width="0.3"/>
<circle cx="13.1598" cy="21.0035" r="2.26136" fill="white"/>
<circle cx="13.1598" cy="30.8317" r="2.26136" fill="white"/>
<circle cx="22.1676" cy="21.0035" r="2.26136" fill="white"/>
<circle cx="22.1676" cy="30.8317" r="2.26136" fill="white"/>
<circle cx="31.1598" cy="20.8473" r="2.26136" fill="white"/>
<circle cx="31.1598" cy="30.8317" r="2.26136" fill="white"/>
</svg>
