<svg width="49" height="44" viewBox="0 0 49 44" fill="none" xmlns="http://www.w3.org/2000/svg">
<path d="M16.0938 24.375H31.0105" stroke="white" stroke-width="3.2" stroke-linecap="round" stroke-linejoin="round"/>
<path d="M21.0625 31.8359H26.0347" stroke="white" stroke-width="3.2" stroke-linecap="round" stroke-linejoin="round"/>
<path d="M2 8.2153C2 7.0601 2 6.48252 2.09554 6.00221C2.48788 4.02977 4.02977 2.48788 6.00221 2.09554C6.48252 2 7.0601 2 8.2153 2H24.3751H40.5349C41.6902 2 42.2677 2 42.748 2.09554C44.7205 2.48788 46.2624 4.02977 46.6547 6.00221C46.7502 6.48252 46.7502 7.0601 46.7502 8.2153C46.7502 9.3705 46.7502 9.94808 46.6547 10.4284C46.2624 12.4008 44.7205 13.9427 42.748 14.3351C42.2677 14.4306 41.6902 14.4306 40.5349 14.4306H24.3751H8.2153C7.0601 14.4306 6.48252 14.4306 6.00221 14.3351C4.02977 13.9427 2.48788 12.4008 2.09554 10.4284C2 9.94808 2 9.3705 2 8.2153Z" stroke="white" stroke-width="3.2" stroke-linejoin="round"/>
<path d="M4.48438 14.4297V31.8323C4.48438 36.5204 4.48438 38.8643 5.94072 40.3206C7.39704 41.7768 9.74098 41.7768 14.4289 41.7768H16.915H31.8317H34.3178C39.0056 41.7768 41.3496 41.7768 42.8059 40.3206C44.2623 38.8643 44.2623 36.5204 44.2623 31.8323V14.4297" stroke="white" stroke-width="3.2" stroke-linecap="round" stroke-linejoin="round"/>
</svg>
