<svg width="45" height="37" viewBox="0 0 45 37" fill="none" xmlns="http://www.w3.org/2000/svg">
<path fill-rule="evenodd" clip-rule="evenodd" d="M29.2204 0.722984C30.0177 -0.0743279 31.3105 -0.0743279 32.1077 0.722984L43.6607 12.2759C45.204 13.8193 44.1109 16.4583 41.9283 16.4583H2.08073C0.953158 16.4583 0.0390625 15.5443 0.0390625 14.4167C0.0390625 13.2891 0.953158 12.375 2.08073 12.375H37.9851L29.2204 3.61035C28.4231 2.81302 28.4231 1.52032 29.2204 0.722984ZM7.00974 24.625H42.9141C44.0417 24.625 44.9557 23.7109 44.9557 22.5833C44.9557 21.4557 44.0417 20.5417 42.9141 20.5417H3.06653C0.883823 20.5417 -0.209296 23.1807 1.33411 24.724L12.887 36.277C13.6844 37.0743 14.9771 37.0743 15.7744 36.277C16.5717 35.4797 16.5717 34.1869 15.7744 33.3897L7.00974 24.625Z" fill="white"/>
</svg>
