<svg width="47" height="35" viewBox="0 0 47 35" fill="none" xmlns="http://www.w3.org/2000/svg">
<path d="M45.7751 3.30175C45.2301 2.47634 44.5237 1.76986 43.6982 1.22494C42.5014 0.426611 41.095 0.000398025 39.6562 0H7.34375C5.90504 0.000398025 4.49864 0.426611 3.30175 1.22494C2.47634 1.76986 1.76986 2.47634 1.22494 3.30175C0.426932 4.49879 0.000748826 5.9051 0 7.34375V27.6419C0 28.6063 0.189954 29.5612 0.559012 30.4522C0.92807 31.3432 1.469 32.1528 2.15093 32.8347C2.83286 33.5166 3.64243 34.0576 4.53342 34.4266C5.4244 34.7957 6.37935 34.9856 7.34375 34.9856H39.6562C40.6206 34.9856 41.5756 34.7957 42.4666 34.4266C43.3576 34.0576 44.1671 33.5166 44.8491 32.8347C45.531 32.1528 46.0719 31.3432 46.441 30.4522C46.81 29.5612 47 28.6063 47 27.6419V7.34375C46.9993 5.9051 46.5731 4.49879 45.7751 3.30175ZM7.34375 2.9375H39.6562C40.3112 2.94118 40.9569 3.09281 41.5451 3.38106L23.5 21.4232L5.45494 3.39281C6.04213 3.1005 6.68786 2.94484 7.34375 2.9375ZM39.6562 32.0481H7.34375C6.68877 32.0444 6.04309 31.8928 5.45494 31.6046L14.523 22.5365C14.7983 22.2611 14.953 21.8876 14.953 21.4981C14.953 21.1086 14.7983 20.7351 14.523 20.4597C14.2476 20.1843 13.8741 20.0297 13.4846 20.0297C13.0951 20.0297 12.7216 20.1843 12.4462 20.4597L3.37812 29.5366C3.09218 28.9488 2.94161 28.3043 2.9375 27.6507V7.34375C2.94161 6.6901 3.09218 6.04568 3.37812 5.45788L22.4719 24.5516C22.6085 24.6879 22.7707 24.796 22.9491 24.8696C23.1276 24.9431 23.3187 24.9808 23.5117 24.9805C23.7048 24.9808 23.8959 24.9431 24.0744 24.8696C24.2528 24.796 24.415 24.6879 24.5516 24.5516L43.6454 5.45788C43.9232 6.04756 44.0657 6.6919 44.0625 7.34375V27.6419C44.0584 28.2955 43.9078 28.9399 43.6219 29.5278L34.5538 20.4597C34.2784 20.1843 33.9049 20.0297 33.5154 20.0297C33.1259 20.0297 32.7524 20.1843 32.477 20.4597C32.2017 20.7351 32.047 21.1086 32.047 21.4981C32.047 21.8876 32.2017 22.2611 32.477 22.5365L41.5451 31.5928C40.9579 31.8851 40.3121 32.0408 39.6562 32.0481Z" fill="white"/>
</svg>
