<svg width="47" height="51" viewBox="0 0 47 51" fill="none" xmlns="http://www.w3.org/2000/svg">
<g clip-path="url(#clip0_2385_10969)">
<path fill-rule="evenodd" clip-rule="evenodd" d="M7.61592 5.51562L9.51839 9.15245L13.824 9.73527L10.72 12.5561L11.4459 16.5427L7.61592 14.6543L3.7609 16.5427L4.48685 12.5561L1.38281 9.73527L5.68841 9.15245L7.61592 5.51562Z" stroke="white" stroke-width="2" stroke-miterlimit="10" stroke-linejoin="round"/>
<path fill-rule="evenodd" clip-rule="evenodd" d="M23.4982 1.375L25.215 5.01182L29.0276 5.59464L26.2629 8.41551L26.9317 12.402L23.4982 10.5137L20.0869 12.402L20.7335 8.41551L17.9688 5.59464L21.7814 5.01182L23.4982 1.375Z" stroke="white" stroke-width="2" stroke-miterlimit="10" stroke-linejoin="round"/>
<path fill-rule="evenodd" clip-rule="evenodd" d="M39.4128 5.51562L41.3153 9.15245L45.6209 9.73527L42.5168 12.5561L43.2428 16.5427L39.4128 14.6543L35.5578 16.5427L36.3088 12.5561L33.1797 9.73527L37.4853 9.15245L39.4128 5.51562Z" stroke="white" stroke-width="2" stroke-miterlimit="10" stroke-linejoin="round"/>
<path d="M23.4983 34.041C27.7431 34.041 31.1842 30.7055 31.1842 26.5908C31.1842 22.4762 27.7431 19.1406 23.4983 19.1406C19.2536 19.1406 15.8125 22.4762 15.8125 26.5908C15.8125 30.7055 19.2536 34.041 23.4983 34.041Z" stroke="white" stroke-width="3" stroke-miterlimit="10"/>
<path fill-rule="evenodd" clip-rule="evenodd" d="M33.7522 49.4023H13.2567C10.4386 49.4023 8.13281 47.1673 8.13281 44.4355C8.13281 41.7038 10.4386 39.4688 13.2567 39.4688H33.7522C36.5704 39.4688 38.8761 41.7038 38.8761 44.4355C38.8761 47.1921 36.596 49.4023 33.7522 49.4023Z" stroke="white" stroke-width="3" stroke-miterlimit="10"/>
</g>
<defs>
<clipPath id="clip0_2385_10969">
<rect width="47" height="51" fill="white"/>
</clipPath>
</defs>
</svg>
