<svg width="45" height="45" viewBox="0 0 45 45" fill="none" xmlns="http://www.w3.org/2000/svg">
<path fill-rule="evenodd" clip-rule="evenodd" d="M8.03685 28.9297C3.61224 28.9297 0 32.5419 0 36.9665C0 41.3912 3.61224 45.0034 8.03685 45.0034H30.54C34.9647 45.0034 38.5769 41.3912 38.5769 36.9665C38.5769 32.5419 34.9647 28.9297 30.54 28.9297H8.03685ZM8.03685 32.1444H30.54C33.2393 32.1444 35.3622 34.2673 35.3622 36.9665C35.3622 39.6658 33.2393 41.7887 30.54 41.7887H8.03685C5.3376 41.7887 3.21474 39.6658 3.21474 36.9665C3.21474 34.2673 5.3376 32.1444 8.03685 32.1444Z" fill="white"/>
<path fill-rule="evenodd" clip-rule="evenodd" d="M33.7636 14.4688C33.3373 14.4688 32.9285 14.6381 32.627 14.9395C32.3256 15.241 32.1562 15.6498 32.1562 16.0761C32.1562 16.5024 32.3256 16.9112 32.627 17.2127C32.9285 17.5141 33.3373 17.6835 33.7636 17.6835C34.1899 17.6835 34.5988 17.5141 34.9002 17.2127C35.2016 16.9112 35.371 16.5024 35.371 16.0761C35.371 15.6498 35.2016 15.241 34.9002 14.9395C34.5988 14.6381 34.1899 14.4688 33.7636 14.4688Z" fill="white"/>
<path fill-rule="evenodd" clip-rule="evenodd" d="M33.7636 4.82031C33.3373 4.82031 32.9285 4.98963 32.627 5.29107C32.3256 5.59252 32.1562 6.00138 32.1562 6.42768V11.2498C32.1562 11.6761 32.3256 12.0849 32.627 12.3864C32.9285 12.6878 33.3373 12.8572 33.7636 12.8572C34.1899 12.8572 34.5988 12.6878 34.9002 12.3864C35.2016 12.0849 35.371 11.6761 35.371 11.2498V6.42768C35.371 6.00138 35.2016 5.59252 34.9002 5.29107C34.5988 4.98963 34.1899 4.82031 33.7636 4.82031Z" fill="white"/>
<path fill-rule="evenodd" clip-rule="evenodd" d="M33.7492 0C29.5212 0 25.826 2.35546 23.904 5.82044C22.4571 5.16881 20.8839 4.8219 19.2828 4.82211C13.0878 4.82211 8.03125 9.87868 8.03125 16.0737C8.03125 22.2688 13.0878 27.3253 19.2828 27.3253H19.2861C23.4192 27.3141 27.1669 25.0365 29.1155 21.4986C30.5305 22.1426 32.0985 22.5032 33.7493 22.5032C39.9443 22.5032 45.0009 17.4466 45.0009 11.2516C45.0009 5.05658 39.9442 0 33.7492 0ZM33.7492 3.21474C38.2069 3.21474 41.786 6.79394 41.786 11.2516C41.786 15.7093 38.2069 19.2885 33.7492 19.2885C32.1672 19.2885 30.6976 18.8355 29.4576 18.0547C29.3398 17.9465 29.2065 17.8566 29.0621 17.7878C27.0312 16.3331 25.7123 13.9554 25.7123 11.2516C25.7123 10.4098 25.8425 9.59833 26.0797 8.8374C26.1616 8.68635 26.2189 8.52312 26.2492 8.35393C27.4056 5.34002 30.3149 3.21474 33.7492 3.21474ZM19.2828 8.03686C20.4935 8.03669 21.6824 8.31083 22.7644 8.83112C22.5922 9.61121 22.4976 10.4212 22.4976 11.2516C22.4976 14.6407 24.0146 17.6869 26.3998 19.7531C25.0417 22.3956 22.3188 24.1011 19.2828 24.1106C14.8252 24.1106 11.246 20.5314 11.246 16.0737C11.246 11.6161 14.8252 8.03686 19.2828 8.03686Z" fill="white"/>
</svg>
