<svg width="42" height="48" viewBox="0 0 42 48" fill="none" xmlns="http://www.w3.org/2000/svg">
<path d="M20.9314 5.89052C25.0425 5.89052 28.9208 6.80215 32.5664 8.6254C36.2121 10.4487 39.2566 13.0834 41.6999 16.5295C41.9714 16.8902 42.0587 17.2107 41.9617 17.4912C41.8648 17.7717 41.6999 18.0122 41.4672 18.2125C41.2345 18.4129 40.9631 18.503 40.6528 18.483C40.3425 18.463 40.071 18.2927 39.8383 17.9721C37.7052 14.8465 34.9613 12.4522 31.6066 10.7893C28.2518 9.1263 24.6934 8.29481 20.9314 8.29481C17.1694 8.29481 13.6401 9.1263 10.3435 10.7893C7.04695 12.4522 4.31272 14.8465 2.14085 17.9721C1.90814 18.3327 1.63666 18.5331 1.32639 18.5732C1.01613 18.6132 0.744642 18.5331 0.511941 18.3327C0.240457 18.1324 0.0756277 17.8819 0.0174525 17.5814C-0.0407226 17.2809 0.0465401 16.9703 0.279241 16.6497C2.68381 13.2437 5.69922 10.5989 9.32547 8.71556C12.9517 6.8322 16.8204 5.89052 20.9314 5.89052ZM20.9314 11.5406C26.1672 11.5406 30.6661 13.3438 34.428 16.9503C38.19 20.5567 40.071 25.0247 40.071 30.3542C40.071 32.3578 39.3826 34.0308 38.0058 35.3732C36.629 36.7156 34.9516 37.3868 32.9737 37.3868C30.9957 37.3868 29.2989 36.7156 27.8833 35.3732C26.4677 34.0308 25.76 32.3578 25.76 30.3542C25.76 29.0318 25.2849 27.9199 24.3347 27.0182C23.3845 26.1166 22.25 25.6658 20.9314 25.6658C19.6128 25.6658 18.4784 26.1166 17.5282 27.0182C16.578 27.9199 16.1029 29.0318 16.1029 30.3542C16.1029 34.2411 17.2179 37.4869 19.4479 40.0916C21.678 42.6962 24.5577 44.5195 28.087 45.5614C28.436 45.6816 28.6687 45.8819 28.7851 46.1624C28.9014 46.4429 28.9208 46.7435 28.8432 47.064C28.7657 47.3445 28.6105 47.585 28.3778 47.7853C28.1451 47.9857 27.8543 48.0458 27.5052 47.9657C23.4717 46.9238 20.1751 44.8501 17.6154 41.7445C15.0557 38.639 13.7759 34.8422 13.7759 30.3542C13.7759 28.3506 14.474 26.6676 15.8702 25.3052C17.2664 23.9428 18.9535 23.2615 20.9314 23.2615C22.9094 23.2615 24.5964 23.9428 25.9926 25.3052C27.3889 26.6676 28.087 28.3506 28.087 30.3542C28.087 31.6766 28.5717 32.7886 29.5413 33.6902C30.5109 34.5918 31.655 35.0426 32.9737 35.0426C34.2923 35.0426 35.417 34.5918 36.3478 33.6902C37.2786 32.7886 37.744 31.6766 37.744 30.3542C37.744 25.7059 36.0957 21.7989 32.7991 18.6333C29.5026 15.4676 25.566 13.8848 20.9896 13.8848C16.4131 13.8848 12.4766 15.4676 9.18004 18.6333C5.88345 21.7989 4.23515 25.6859 4.23515 30.2941C4.23515 31.2558 4.32241 32.458 4.49694 33.9005C4.67146 35.3431 5.08839 37.0261 5.7477 38.9496C5.86405 39.3102 5.85436 39.6308 5.71862 39.9113C5.58287 40.1918 5.35987 40.3921 5.0496 40.5123C4.73933 40.6326 4.43876 40.6225 4.14789 40.4823C3.85701 40.342 3.6534 40.1116 3.53705 39.7911C2.9553 38.2283 2.53838 36.6755 2.28628 35.1327C2.03419 33.59 1.90814 31.9971 1.90814 30.3542C1.90814 25.0247 3.77944 20.5567 7.52205 16.9503C11.2646 13.3438 15.7344 11.5406 20.9314 11.5406ZM20.9314 0C23.4136 0 25.8375 0.310555 28.2033 0.931664C30.5691 1.55277 32.8573 2.44437 35.068 3.60644C35.417 3.8068 35.6206 4.04723 35.6788 4.32773C35.737 4.60823 35.7079 4.88873 35.5915 5.16923C35.4752 5.44973 35.2813 5.67013 35.0098 5.83041C34.7383 5.9907 34.4087 5.97066 34.0208 5.7703C31.9653 4.68837 29.8419 3.85689 27.6506 3.27585C25.4594 2.69481 23.2196 2.40429 20.9314 2.40429C18.682 2.40429 16.4713 2.67478 14.2994 3.21574C12.1276 3.75671 10.0527 4.60823 8.07471 5.7703C7.76444 5.97066 7.45417 6.02075 7.14391 5.92057C6.83364 5.82039 6.60094 5.61002 6.44581 5.28945C6.29067 4.96887 6.25189 4.67835 6.32945 4.41789C6.40702 4.15742 6.60094 3.92701 6.91121 3.72665C9.08308 2.52451 11.3519 1.60286 13.7177 0.961717C16.0835 0.320572 18.4881 0 20.9314 0ZM20.9314 17.371C24.5383 17.371 27.6409 18.6233 30.2394 21.1277C32.8379 23.6322 34.1372 26.7077 34.1372 30.3542C34.1372 30.7148 34.0305 31.0054 33.8172 31.2258C33.6039 31.4462 33.3227 31.5564 32.9737 31.5564C32.6634 31.5564 32.3919 31.4462 32.1592 31.2258C31.9265 31.0054 31.8102 30.7148 31.8102 30.3542C31.8102 27.3488 30.7339 24.8343 28.5814 22.8107C26.429 20.7871 23.879 19.7753 20.9314 19.7753C17.9839 19.7753 15.4533 20.7871 13.3396 22.8107C11.2259 24.8343 10.169 27.3488 10.169 30.3542C10.169 33.6 10.712 36.3549 11.7979 38.619C12.8839 40.883 14.474 43.1571 16.5683 45.4411C16.801 45.6816 16.9173 45.9621 16.9173 46.2826C16.9173 46.6032 16.801 46.8837 16.5683 47.1242C16.3356 47.3646 16.0641 47.4848 15.7538 47.4848C15.4436 47.4848 15.1721 47.3646 14.9394 47.1242C12.6512 44.6397 10.8962 42.1052 9.67453 39.5206C8.45285 36.936 7.84201 33.8805 7.84201 30.3542C7.84201 26.7077 9.12186 23.6322 11.6816 21.1277C14.2413 18.6233 17.3246 17.371 20.9314 17.371ZM20.8732 29.1521C21.2223 29.1521 21.5035 29.2723 21.7168 29.5127C21.9301 29.7531 22.0367 30.0336 22.0367 30.3542C22.0367 33.3596 23.0839 35.824 25.1782 37.7474C27.2725 39.6708 29.7159 40.6326 32.5083 40.6326C32.741 40.6326 33.0706 40.6125 33.4972 40.5725C33.9239 40.5324 34.3699 40.4723 34.8353 40.3921C35.1843 40.312 35.4849 40.3621 35.737 40.5424C35.9891 40.7227 36.1539 40.9932 36.2315 41.3539C36.309 41.6744 36.2509 41.9549 36.0569 42.1954C35.863 42.4358 35.6109 42.5961 35.3007 42.6762C34.6026 42.8766 33.9917 42.9868 33.4682 43.0068C32.9446 43.0268 32.6246 43.0369 32.5083 43.0369C29.0565 43.0369 26.0605 41.8347 23.5202 39.4304C20.9799 37.0261 19.7097 34.0007 19.7097 30.3542C19.7097 30.0336 19.8164 29.7531 20.0297 29.5127C20.243 29.2723 20.5242 29.1521 20.8732 29.1521Z" fill="white"/>
</svg>
