<svg width="47" height="47" viewBox="0 0 47 47" fill="none" xmlns="http://www.w3.org/2000/svg">
<path d="M18.9675 8.62256H42.3265C43.1958 8.62256 43.9009 9.32764 43.9009 10.1969V42.1823C43.9009 43.0516 43.1958 43.7567 42.3265 43.7567H4.67347C3.80389 43.7567 3.09913 43.0518 3.09913 42.1823V10.1969C3.09913 9.32743 3.80389 8.62256 4.67347 8.62256H7.45481V6.52344H4.67347C2.6445 6.52344 1 8.1682 1 10.1969V42.1823C1 44.211 2.6445 45.8558 4.67347 45.8558H42.3265C44.3551 45.8558 46 44.2109 46 42.1823V10.1969C46 8.16835 44.3551 6.52344 42.3265 6.52344H18.9675V8.62256Z" fill="white" stroke="white" stroke-width="0.5"/>
<path d="M17.4647 38.45C18.3339 38.45 19.039 37.7449 19.039 36.8756V4.67347C19.039 3.80389 18.3341 3.09913 17.4647 3.09913H11.2985C10.429 3.09913 9.72413 3.80389 9.72413 4.67347V36.8756C9.72413 37.7449 10.4292 38.45 11.2985 38.45H17.4647ZM17.4647 40.5491H11.2985C9.26991 40.5491 7.625 38.9042 7.625 36.8756V4.67347C7.625 2.6445 9.26976 1 11.2985 1H17.4647C19.4934 1 21.1381 2.6445 21.1381 4.67347V36.8756C21.1381 38.9042 19.4932 40.5491 17.4647 40.5491ZM39.1114 17.0583C39.4013 17.0583 39.6362 16.8234 39.6362 16.5335V14.4081C39.6362 14.1182 39.4013 13.8833 39.1114 13.8833H27.0604C26.9914 13.8833 26.9232 13.8969 26.8595 13.9233C26.7958 13.9496 26.738 13.9883 26.6893 14.037C26.6405 14.0857 26.6019 14.1436 26.5755 14.2073C26.5491 14.2709 26.5356 14.3392 26.5356 14.4081V16.5335C26.5356 16.8234 26.7705 17.0583 27.0604 17.0583H39.1114ZM39.1114 19.1574H27.0604C25.6112 19.1574 24.4365 17.9827 24.4365 16.5335V14.4081C24.4365 12.9589 25.6112 11.7842 27.0604 11.7842H39.1114C40.5606 11.7842 41.7353 12.9589 41.7353 14.4081V16.5335C41.7353 17.9827 40.5606 19.1574 39.1114 19.1574ZM29.1237 23.3556C29.1237 24.0803 28.5365 24.6676 27.8118 24.6676C27.0871 24.6676 26.4998 24.0803 26.4998 23.3556C26.4998 22.6309 27.0871 22.0437 27.8118 22.0437C28.5365 22.0437 29.1237 22.6309 29.1237 23.3556ZM34.3715 23.3556C34.3715 24.0803 33.7843 24.6676 33.0596 24.6676C32.3349 24.6676 31.7476 24.0803 31.7476 23.3556C31.7476 22.6309 32.3349 22.0437 33.0596 22.0437C33.7843 22.0437 34.3715 22.6309 34.3715 23.3556ZM39.6718 23.3556C39.6718 24.0803 39.0846 24.6676 38.3599 24.6676C37.6352 24.6676 37.0479 24.0803 37.0479 23.3556C37.0479 22.6309 37.6352 22.0437 38.3599 22.0437C39.0846 22.0437 39.6718 22.6309 39.6718 23.3556ZM29.1237 28.7084C29.1237 29.4331 28.5365 30.0204 27.8118 30.0204C27.0871 30.0204 26.4998 29.4331 26.4998 28.7084C26.4998 27.9837 27.0871 27.3965 27.8118 27.3965C28.5365 27.3965 29.1237 27.9837 29.1237 28.7084ZM34.3715 28.7084C34.3715 29.4331 33.7843 30.0204 33.0596 30.0204C32.3349 30.0204 31.7476 29.4331 31.7476 28.7084C31.7476 27.9837 32.3349 27.3965 33.0596 27.3965C33.7843 27.3965 34.3715 27.9837 34.3715 28.7084ZM39.6718 28.7084C39.6718 29.4331 39.0846 30.0204 38.3599 30.0204C37.6352 30.0204 37.0479 29.4331 37.0479 28.7084C37.0479 27.9837 37.6352 27.3965 38.3599 27.3965C39.0846 27.3965 39.6718 27.9837 39.6718 28.7084ZM29.1237 33.9562C29.1237 34.6809 28.5365 35.2682 27.8118 35.2682C27.0871 35.2682 26.4998 34.6809 26.4998 33.9562C26.4998 33.2315 27.0871 32.6443 27.8118 32.6443C28.5365 32.6443 29.1237 33.2315 29.1237 33.9562ZM34.3715 33.9562C34.3715 34.6809 33.7843 35.2682 33.0596 35.2682C32.3349 35.2682 31.7476 34.6809 31.7476 33.9562C31.7476 33.2315 32.3349 32.6443 33.0596 32.6443C33.7843 32.6443 34.3715 33.2315 34.3715 33.9562ZM39.6718 33.9562C39.6718 34.6809 39.0846 35.2682 38.3599 35.2682C37.6352 35.2682 37.0479 34.6809 37.0479 33.9562C37.0479 33.2315 37.6352 32.6443 38.3599 32.6443C39.0846 32.6443 39.6718 33.2315 39.6718 33.9562Z" fill="white" stroke="white" stroke-width="0.5"/>
</svg>
