<svg width="47" height="47" viewBox="0 0 47 47" fill="none" xmlns="http://www.w3.org/2000/svg">
<g clip-path="url(#clip0_2385_11377)">
<path d="M23.4997 11.2963C26.584 11.2963 29.0932 8.78697 29.0932 5.70285C29.0932 2.61873 26.584 0.109375 23.4997 0.109375C20.4154 0.109375 17.9062 2.61873 17.9062 5.70285C17.9062 8.78697 20.4154 11.2963 23.4997 11.2963ZM23.4997 2.85864C25.068 2.85864 26.3439 4.13444 26.3439 5.70285C26.3439 7.27126 25.068 8.5469 23.4997 8.5469C21.9315 8.5469 20.6555 7.2711 20.6555 5.70269C20.6555 4.13428 21.9315 2.85864 23.4997 2.85864Z" fill="white"/>
<path d="M5.59332 14.1555C8.67759 14.1555 11.1868 11.6463 11.1868 8.56223C11.1868 5.47811 8.67759 2.96875 5.59332 2.96875C2.50904 2.96875 0 5.47811 0 8.56223C0 11.6463 2.5092 14.1555 5.59332 14.1555ZM5.59332 5.71817C7.16157 5.71817 8.43753 6.99398 8.43753 8.56238C8.43753 10.1305 7.16172 11.4064 5.59332 11.4064C4.02523 11.4064 2.74926 10.1306 2.74926 8.56238C2.74942 6.99398 4.02523 5.71817 5.59332 5.71817Z" fill="white"/>
<path d="M15.1107 29.5344H10.6557V19.8553C10.6557 17.0618 8.38288 14.7891 5.58947 14.7891C2.79605 14.7891 0.523438 17.0617 0.523438 19.8551V32.6882C0.523437 35.3703 2.70538 37.5521 5.38738 37.5521H11.1678V45.5173C11.1678 46.2765 11.7832 46.892 12.5425 46.892H17.8794C18.6387 46.892 19.2541 46.2765 19.2541 45.5173V33.678C19.2543 31.3932 17.3955 29.5344 15.1107 29.5344ZM16.5049 44.1427H13.9172V36.1775C13.9172 35.4183 13.3017 34.8028 12.5425 34.8028H5.38754C4.22156 34.8028 3.27286 33.8543 3.27286 32.6882V19.8551C3.27286 18.5777 4.31208 17.5383 5.58947 17.5383C6.86701 17.5383 7.90624 18.5777 7.90624 19.8551V30.909C7.90624 31.6682 8.52167 32.2837 9.28095 32.2837H15.1105C15.8793 32.2837 16.5049 32.9091 16.5049 33.678V44.1427Z" fill="white"/>
<path d="M41.406 14.1555C44.4903 14.1555 46.9993 11.6463 46.9993 8.56223C46.9993 5.47811 44.4901 2.96875 41.406 2.96875C38.3217 2.96875 35.8125 5.47811 35.8125 8.56223C35.8125 11.6463 38.3217 14.1555 41.406 14.1555ZM41.406 5.71817C42.9741 5.71817 44.25 6.99398 44.25 8.56238C44.25 10.1305 42.9742 11.4064 41.406 11.4064C39.8377 11.4064 38.5618 10.1306 38.5618 8.56238C38.5618 6.99398 39.8376 5.71817 41.406 5.71817Z" fill="white"/>
<path d="M41.4067 14.7891C38.6133 14.7891 36.3407 17.0618 36.3407 19.8553V29.5344H31.8858C29.6008 29.5344 27.7422 31.3932 27.7422 33.678V45.5173C27.7422 46.2765 28.3576 46.892 29.1169 46.892H34.4539C35.2131 46.892 35.8286 46.2765 35.8286 45.5173V37.5521H41.6089C44.2911 37.5521 46.4729 35.3702 46.4729 32.6882V19.8551C46.4729 17.0617 44.2001 14.7891 41.4067 14.7891ZM43.7235 32.6882C43.7235 33.8541 42.7749 34.8028 41.6088 34.8028H34.4537C33.6944 34.8028 33.079 35.4183 33.079 36.1775V44.1427H30.4913V33.678C30.4913 32.9092 31.1167 32.2837 31.8856 32.2837H37.7152C38.4745 32.2837 39.0899 31.6682 39.0899 30.909V19.8551C39.0899 18.5777 40.1291 17.5383 41.4067 17.5383C42.6841 17.5383 43.7233 18.5777 43.7233 19.8551V32.6882H43.7235Z" fill="white"/>
<path d="M15.6875 16.2188C15.6875 15.1142 16.5829 14.2188 17.6875 14.2188H29.3125C30.4171 14.2188 31.3125 15.1142 31.3125 16.2188V26.9062H15.6875V16.2188Z" stroke="white" stroke-width="2" stroke-linejoin="round"/>
<path d="M21.9297 21.9361L23.4964 14.625L25.063 21.9361L23.4964 24.025L21.9297 21.9361Z" stroke="white" stroke-width="1.3" stroke-linejoin="round"/>
</g>
<defs>
<clipPath id="clip0_2385_11377">
<rect width="47" height="47" fill="white"/>
</clipPath>
</defs>
</svg>
