<svg width="44" height="44" viewBox="0 0 44 44" fill="none" xmlns="http://www.w3.org/2000/svg">
<path fill-rule="evenodd" clip-rule="evenodd" d="M43.3796 7.80559L40.9268 7.2268L34.298 13.82L30.5434 9.99493L37.0087 3.20987L36.4426 0.718551C35.0764 0.261338 33.6474 0.0193829 32.2069 0.00135366C30.6354 -0.0228196 29.0758 0.276997 27.6252 0.882122C26.2246 1.51631 24.9586 2.41327 23.8957 3.52443C22.7126 4.64556 21.7756 6.00067 21.1442 7.50361C19.9287 10.4947 19.9287 13.8424 21.1442 16.8335C14.5885 23.2851 8.11743 29.8222 1.73267 36.4431C1.07231 37.3082 0.757846 38.3871 0.839605 39.4723C0.904044 40.6396 1.4288 41.7335 2.29869 42.5141C2.68862 42.9388 3.15402 43.2911 3.67288 43.5459C4.20746 43.7818 4.78292 43.9171 5.36467 43.9454C6.35836 43.9265 7.31117 43.549 8.05015 42.8853C12.918 38.3022 22.2448 28.8874 27.5435 23.37C28.9805 23.9803 30.5245 24.2948 32.0842 24.2917C33.6543 24.2904 35.2081 23.9744 36.654 23.3623C38.0999 22.7501 39.4084 21.8543 40.5023 20.7277C42.7493 18.4354 44.0042 15.3506 43.9959 12.1402C44.0323 10.6711 43.824 9.20626 43.3796 7.80559ZM6.14767 40.6551C6.02664 40.7626 5.88074 40.8383 5.72315 40.8753C5.56812 40.9021 5.40964 40.9021 5.25461 40.8753C5.09206 40.8505 4.93725 40.7892 4.80179 40.696C4.65643 40.6109 4.53352 40.4922 4.44331 40.35C4.00306 39.9001 3.59112 39.0445 4.00306 38.5633C8.31115 33.9801 17.182 25.0215 22.7291 19.545C23.0436 19.9602 23.3895 20.3565 23.7605 20.7277C24.1316 21.1146 24.5309 21.4732 24.9555 21.8004C19.5908 27.3052 10.8394 36.1569 6.14767 40.6551ZM41.1092 12.1402C41.1155 14.5466 40.1784 16.8586 38.4929 18.5824C36.811 20.2329 34.5489 21.1575 32.1927 21.1575C29.8366 21.1575 27.5745 20.2329 25.8925 18.5824C24.6598 17.2955 23.8177 15.685 23.4642 13.9381C23.1107 12.1912 23.2604 10.3798 23.8957 8.71467C24.3187 7.58141 24.9747 6.54957 25.8213 5.68586C26.6679 4.82215 27.6864 4.14581 28.8107 3.70058C29.8783 3.25362 31.0244 3.02474 32.1817 3.02742H32.9804L27.2667 8.91913V11.1085L33.2257 17.0411H35.3012L41.1092 11.3287V12.1402ZM7.11306 17.8809H11.9274L14.1444 20.1363L16.2764 18.0162L14.1852 15.8835V15.7482L14.3645 10.5611L13.6727 9.18651L4.67915 3.26649L2.8207 3.4741L0.207543 6.14471L0 8.02892L5.77976 17.2078L7.11306 17.8809ZM4.14142 6.45613L11.418 11.25L11.2954 14.7825H7.91179L3.22006 7.35262L4.14142 6.45613ZM26.4837 28.3495L28.6032 26.2325L38.3703 36.2512C39.193 37.1162 39.6518 38.2643 39.6518 39.4582C39.6518 40.6521 39.193 41.8002 38.3703 42.6651C37.7517 43.3004 36.9562 43.7347 36.0874 43.9114C35.2187 44.0881 34.3168 43.9991 33.4993 43.656C32.9776 43.4245 32.5096 43.0871 32.1251 42.6651L22.2448 32.5898L24.38 30.4571L34.2289 40.5041C34.3613 40.6502 34.526 40.7633 34.71 40.8344C35.0719 40.9814 35.4769 40.9814 35.8389 40.8344C36.0228 40.7632 36.1875 40.6501 36.32 40.5041C36.4576 40.3677 36.5648 40.2037 36.6345 40.0228C36.7066 39.8383 36.745 39.6422 36.7477 39.444C36.7445 39.2462 36.7073 39.0504 36.6376 38.8652C36.568 38.6844 36.4608 38.5204 36.3232 38.384L26.4837 28.3495Z" fill="white"/>
</svg>
