<svg width="40" height="50" viewBox="0 0 40 50" fill="none" xmlns="http://www.w3.org/2000/svg">
<path d="M21.8089 2.18249C23.8437 2.76992 25.2486 4.65343 25.2514 6.79834M21.8089 2.18249L21.8086 2.18218C21.3868 2.05947 20.9498 1.99814 20.5108 2.00004C19.6852 2.00217 18.8742 2.21961 18.1563 2.6313L4.31016 10.6387C3.60772 11.0454 3.02413 11.6324 2.61845 12.3402C2.21278 13.048 1.99943 13.8514 2.00001 14.6693V31.8105C1.99539 33.6632 3.94893 34.8456 5.55508 33.9626L9.30524 31.9093C9.82019 31.6218 10.2492 31.1997 10.5475 30.6874C10.8457 30.175 11.0022 29.5911 11.0006 28.9967V17.718C11.0007 17.0384 11.2071 16.3751 11.5921 15.8177C11.977 15.2603 12.5219 14.8355 13.1532 14.6006L25.2514 10.1675V6.79834M21.8089 2.18249C23.8446 2.7693 25.2489 4.6525 25.2514 6.79834M21.8089 2.18249L34.6711 5.87772C36.6415 6.44588 38.0009 8.27127 38 10.3484V39.6426C37.9972 41.7142 36.6443 43.5349 34.6806 44.1087L21.86 47.8098C23.8714 47.2311 25.2572 45.3662 25.2514 43.2465V6.79834M25.2514 37.9238H10.9489C8.49847 37.9506 7.64062 41.233 9.75662 42.4865L18.276 47.384C18.9774 47.7882 19.7712 48.0006 20.5788 48C21.0131 47.9998 21.4452 47.9358 21.8612 47.8098C23.872 47.2307 25.2572 45.3662 25.2514 43.2471V37.9238Z" stroke="white" stroke-width="3"/>
</svg>
