<svg width="50" height="51" viewBox="0 0 50 51" fill="none" xmlns="http://www.w3.org/2000/svg">
<path d="M21.0803 1.08396C22.2506 0.374891 23.5927 0 24.9609 0C26.3292 0 27.6713 0.374891 28.8415 1.08396L46.3142 11.6741C47.4153 12.3412 48.3257 13.281 48.9577 14.4027C49.5896 15.5243 49.9217 16.7899 49.9219 18.0774V19.9544C49.9219 20.6164 49.6589 21.2513 49.1908 21.7194C48.7227 22.1875 48.0878 22.4505 47.4258 22.4505C46.7638 22.4505 46.1289 22.1875 45.6608 21.7194C45.1927 21.2513 44.9297 20.6164 44.9297 19.9544V18.0774C44.9301 17.648 44.8198 17.2257 44.6093 16.8514C44.3988 16.4771 44.0954 16.1634 43.7282 15.9407L26.2556 5.35394C25.8653 5.11716 25.4175 4.99195 24.9609 4.99195C24.5044 4.99195 24.0566 5.11716 23.6663 5.35394L6.19364 15.9407C5.82651 16.1634 5.52304 16.4771 5.31257 16.8514C5.1021 17.2257 4.99175 17.648 4.99219 18.0774V35.144C4.99175 35.5734 5.1021 35.9957 5.31257 36.37C5.52304 36.7442 5.82651 37.0579 6.19364 37.2806L19.5993 45.4013C19.8797 45.5713 20.1238 45.7948 20.3178 46.0592C20.5118 46.3236 20.6518 46.6236 20.7298 46.942C20.8078 47.2605 20.8224 47.5912 20.7726 47.9153C20.7228 48.2394 20.6097 48.5505 20.4397 48.8309C20.2697 49.1113 20.0461 49.3554 19.7817 49.5494C19.5174 49.7433 19.2174 49.8833 18.8989 49.9614C18.5804 50.0394 18.2497 50.0539 17.9256 50.0042C17.6015 49.9544 17.2904 49.8413 17.01 49.6712L3.60769 41.5506C2.50566 40.8829 1.59459 39.942 0.962584 38.8191C0.33058 37.6962 -0.000969212 36.4292 2.12817e-06 35.1407V18.0774C0.0001758 16.7899 0.332269 15.5243 0.964218 14.4027C1.59617 13.281 2.50663 12.3412 3.60769 11.6741L21.0803 1.08396Z" fill="white"/>
<path d="M34.4832 40.3648C33.5223 40.3648 32.583 40.08 31.7842 39.5461C30.9852 39.0123 30.3625 38.2536 29.9948 37.3658C29.6271 36.4781 29.5309 35.5013 29.7184 34.5589C29.9058 33.6164 30.3685 32.7509 31.0479 32.0714C31.7274 31.3919 32.593 30.9292 33.5354 30.7418C34.4779 30.5543 35.4547 30.6505 36.3424 31.0182C37.2302 31.386 37.9889 32.0086 38.5226 32.8076C39.0565 33.6065 39.3414 34.5458 39.3414 35.5066C39.3414 36.7951 38.8295 38.0309 37.9184 38.9419C37.0075 39.853 35.7717 40.3648 34.4832 40.3648ZM34.4832 33.1356C34.0143 33.1356 33.5558 33.2747 33.1658 33.5352C32.776 33.7956 32.4721 34.1661 32.2927 34.5993C32.1131 35.0326 32.0662 35.5093 32.1577 35.9692C32.2492 36.4292 32.4751 36.8517 32.8065 37.1833C33.1382 37.5149 33.5606 37.7407 34.0206 37.8321C34.4805 37.9236 34.9572 37.8767 35.3905 37.6973C35.8238 37.5177 36.1942 37.2138 36.4547 36.824C36.7152 36.434 36.8543 35.9755 36.8543 35.5066C36.8543 34.8777 36.6044 34.2747 36.1599 33.83C35.7152 33.3854 35.1121 33.1356 34.4832 33.1356Z" fill="white" stroke="white" stroke-width="0.6"/>
<path d="M34.5912 50.0166C34.1064 50.0144 33.6268 49.9164 33.18 49.7284C32.7331 49.5404 32.3277 49.266 31.9873 48.9209C31.6467 48.5757 31.3778 48.1668 31.1959 47.7175C31.0139 47.2681 30.9224 46.7873 30.9268 46.3025C30.9203 46.1529 30.8717 46.0083 30.7866 45.8851C30.7016 45.7619 30.5835 45.6653 30.446 45.6061C30.2938 45.5363 30.1244 45.5132 29.959 45.5398C29.7937 45.5663 29.6401 45.6412 29.5174 45.7553C28.829 46.4384 27.9007 46.8253 26.9308 46.8331C25.9549 46.8394 25.0149 46.4645 24.311 45.7885C23.9691 45.4466 23.6979 45.0408 23.5128 44.5941C23.3278 44.1475 23.2325 43.6688 23.2325 43.1853C23.2325 42.7018 23.3278 42.2231 23.5128 41.7764C23.6979 41.3297 23.9691 40.924 24.311 40.5821C24.428 40.4754 24.512 40.3377 24.5531 40.1849C24.5942 40.0321 24.5908 39.8707 24.5432 39.7199C24.4624 39.5799 24.3465 39.4635 24.2069 39.3821C24.0673 39.3007 23.9089 39.2571 23.7473 39.2556C22.7717 39.2518 21.8357 38.8693 21.1367 38.1888C20.4376 37.5083 20.0301 36.5829 20 35.6078C20.0022 35.1245 20.0995 34.6461 20.2865 34.2004C20.4735 33.7547 20.7465 33.3501 21.0898 33.0097C21.4332 32.6695 21.8402 32.4002 22.2876 32.2173C22.7351 32.0343 23.2141 31.9412 23.6975 31.9434C23.8471 31.9369 23.9918 31.8883 24.115 31.8032C24.2381 31.7182 24.3348 31.6001 24.3939 31.4626C24.4638 31.3104 24.4869 31.1409 24.4603 30.9756C24.4338 30.8103 24.3587 30.6566 24.2447 30.534C23.5615 29.8456 23.1747 28.9173 23.167 27.9474C23.1585 27.4633 23.2465 26.9823 23.4258 26.5325C23.6052 26.0827 23.8723 25.6731 24.2116 25.3276C24.5534 24.9857 24.9592 24.7145 25.4059 24.5294C25.8525 24.3444 26.3313 24.2491 26.8148 24.2491C27.2982 24.2491 27.777 24.3444 28.2236 24.5294C28.6703 24.7145 29.0761 24.9857 29.418 25.3276C29.5373 25.4412 29.6839 25.5222 29.8436 25.5629C30.0033 25.6035 30.1707 25.6024 30.3299 25.5598C30.475 25.4803 30.598 25.3659 30.6877 25.2269C30.7775 25.088 30.8312 24.9288 30.8439 24.7639C30.8435 23.7854 31.2241 22.8452 31.9049 22.1426C32.5859 21.44 33.5138 21.0302 34.4917 21C34.975 21.0043 35.4529 21.1038 35.8979 21.2929C36.3428 21.4818 36.7462 21.7566 37.085 22.1015C37.4235 22.4464 37.6912 22.8547 37.8721 23.3029C38.053 23.7512 38.1438 24.2307 38.1395 24.7141C38.1458 24.8658 38.1921 25.0132 38.2736 25.1413C38.3551 25.2694 38.469 25.3737 38.6038 25.4437C38.7502 25.4974 38.9087 25.5088 39.0611 25.4765C39.2136 25.4443 39.3539 25.3697 39.466 25.2613C40.1544 24.5781 41.0828 24.1913 42.0526 24.1835C42.5376 24.1683 43.0206 24.2532 43.4713 24.433C43.9221 24.6127 44.331 24.8834 44.6724 25.2281C45.0143 25.5699 45.2855 25.9758 45.4706 26.4225C45.6556 26.8691 45.751 27.3479 45.751 27.8313C45.751 28.3148 45.6556 28.7936 45.4706 29.2402C45.2855 29.6869 45.0143 30.0927 44.6724 30.4345C44.5674 30.5587 44.4955 30.7075 44.4636 30.867C44.4318 31.0265 44.4407 31.1915 44.49 31.3465C44.5694 31.4916 44.6838 31.6146 44.8228 31.7043C44.9617 31.7941 45.1209 31.8477 45.2859 31.8605C46.2557 31.8729 47.1834 32.2591 47.8753 32.9388C48.5672 33.6184 48.9702 34.5388 49 35.5083C48.9957 35.9916 48.8962 36.4695 48.7072 36.9144C48.5182 37.3594 48.2434 37.7628 47.8985 38.1014C47.5536 38.4401 47.1454 38.7078 46.6971 38.8886C46.2487 39.0695 45.7692 39.1604 45.2859 39.1561C45.1342 39.1624 44.9868 39.2087 44.8588 39.2902C44.7306 39.3717 44.6263 39.4856 44.5563 39.6204C44.5026 39.7668 44.4912 39.9251 44.5235 40.0777C44.5557 40.2302 44.6303 40.3705 44.7387 40.4826C45.422 41.171 45.8087 42.0994 45.8165 43.0692C45.8249 43.5534 45.7369 44.0344 45.5576 44.484C45.3782 44.9339 45.1111 45.3434 44.7719 45.689C44.4301 46.0309 44.0242 46.3021 43.5775 46.4872C43.1309 46.6722 42.6522 46.7674 42.1687 46.7674C41.6852 46.7674 41.2065 46.6722 40.7598 46.4872C40.3131 46.3021 39.9074 46.0309 39.5655 45.689C39.4534 45.5805 39.3131 45.5059 39.1606 45.4738C39.0082 45.4414 38.8497 45.4529 38.7033 45.5066C38.5633 45.5873 38.4469 45.7032 38.3655 45.8428C38.2841 45.9825 38.2405 46.1408 38.239 46.3025C38.2267 47.2723 37.8404 48.2 37.1607 48.8919C36.4811 49.5838 35.5607 49.9868 34.5912 50.0166ZM30.0978 43.036C30.5376 43.0309 30.9732 43.1214 31.3745 43.3013C31.9668 43.5482 32.4746 43.9616 32.8366 44.4913C33.1987 45.0211 33.3992 45.6444 33.4139 46.2859C33.4093 46.6057 33.5298 46.9146 33.7497 47.1469C33.9697 47.3792 34.2717 47.5165 34.5912 47.5295C34.9107 47.5043 35.2087 47.358 35.4244 47.1209C35.6399 46.8836 35.7572 46.5732 35.7519 46.2527C35.7558 45.6091 35.9415 44.9795 36.2877 44.4368C36.634 43.8941 37.1264 43.4602 37.7084 43.1853C38.3139 42.9334 38.9805 42.8667 39.6238 42.9936C40.2672 43.1204 40.8586 43.4353 41.323 43.8982C41.5429 44.1181 41.8412 44.2416 42.1521 44.2416C42.463 44.2416 42.7613 44.1181 42.9811 43.8982C43.201 43.6784 43.3245 43.3801 43.3245 43.0692C43.3245 42.7583 43.201 42.46 42.9811 42.2401C42.521 41.7739 42.2093 41.1816 42.0854 40.5383C41.9614 39.8949 42.0309 39.2294 42.2847 38.6255C42.5462 38.0437 42.97 37.5496 43.5054 37.2025C44.0406 36.8557 44.6646 36.6703 45.3025 36.669C45.618 36.6736 45.9228 36.5547 46.1519 36.338C46.381 36.1211 46.5165 35.8235 46.5294 35.5083C46.5082 35.1873 46.3631 34.887 46.1252 34.6705C45.8871 34.4541 45.5744 34.3384 45.2527 34.3476C44.6037 34.3301 43.9725 34.1313 43.4305 33.7738C42.8884 33.4163 42.4572 32.9144 42.1852 32.3248C41.937 31.7132 41.8724 31.0425 41.999 30.3948C42.1256 29.747 42.4381 29.1501 42.8982 28.677C43.0072 28.5681 43.0935 28.4388 43.1524 28.2966C43.2113 28.1543 43.2416 28.0019 43.2416 27.8479C43.2416 27.6939 43.2113 27.5415 43.1524 27.3992C43.0935 27.257 43.0072 27.1277 42.8982 27.0189C42.7893 26.91 42.6601 26.8236 42.5179 26.7647C42.3756 26.7058 42.2232 26.6755 42.0692 26.6755C41.9153 26.6755 41.7628 26.7058 41.6205 26.7647C41.4782 26.8236 41.3491 26.91 41.2401 27.0189C40.774 27.4518 40.193 27.7416 39.5668 27.8535C38.9405 27.9654 38.2952 27.8948 37.7079 27.6501C37.1206 27.4054 36.616 26.997 36.2546 26.4734C35.8931 25.9499 35.6898 25.3334 35.6689 24.6975C35.6736 24.3821 35.5549 24.0773 35.338 23.8482C35.1213 23.619 34.8235 23.4835 34.5083 23.4706C34.1873 23.4919 33.887 23.6368 33.6704 23.8749C33.4541 24.113 33.3383 24.4257 33.3476 24.7473C33.33 25.3963 33.1312 26.0275 32.7738 26.5696C32.4163 27.1116 31.9144 27.5429 31.3247 27.8148C30.7132 28.0629 30.0425 28.1276 29.3948 28.001C28.747 27.8744 28.1501 27.5619 27.677 27.1018C27.5681 26.9929 27.4388 26.9065 27.2966 26.8476C27.1543 26.7887 27.0019 26.7584 26.8479 26.7584C26.6939 26.7584 26.5415 26.7887 26.3992 26.8476C26.257 26.9065 26.1277 26.9929 26.0189 27.1018C25.91 27.2106 25.8236 27.3399 25.7647 27.4821C25.7058 27.6244 25.6755 27.7769 25.6755 27.9308C25.6755 28.0848 25.7058 28.2373 25.7647 28.3795C25.8236 28.5217 25.91 28.651 26.0189 28.7599C26.4762 29.228 26.7848 29.8211 26.9058 30.4643C27.0268 31.1075 26.9547 31.7722 26.6987 32.3745C26.4518 32.9668 26.0385 33.4747 25.5087 33.8366C24.979 34.1986 24.3556 34.3992 23.7141 34.414C23.3943 34.4093 23.0853 34.5299 22.853 34.7497C22.6207 34.9698 22.4835 35.2715 22.4706 35.5912C22.4958 35.9107 22.6419 36.2087 22.8791 36.4244C23.1163 36.6399 23.4268 36.757 23.7473 36.7519C24.391 36.7558 25.0205 36.9416 25.5632 37.2878C26.1059 37.634 26.5398 38.1264 26.8148 38.7084C27.0666 39.314 27.1333 39.9805 27.0064 40.6238C26.8795 41.2672 26.5647 41.8586 26.1018 42.3231C25.9929 42.432 25.9065 42.5612 25.8476 42.7034C25.7887 42.8457 25.7584 42.9981 25.7584 43.1521C25.7584 43.3061 25.7887 43.4585 25.8476 43.6008C25.9065 43.743 25.9929 43.8722 26.1018 43.9811C26.2106 44.0901 26.3399 44.1763 26.4821 44.2353C26.6244 44.2942 26.7769 44.3245 26.9308 44.3245C27.0848 44.3245 27.2373 44.2942 27.3795 44.2353C27.5217 44.1763 27.651 44.0901 27.7599 43.9811C28.3901 43.3794 29.2264 43.0413 30.0978 43.036Z" fill="white" stroke="white" stroke-width="0.6"/>
</svg>
