<svg width="46" height="46" viewBox="0 0 46 46" fill="none" xmlns="http://www.w3.org/2000/svg">
<path d="M34.2778 22.7465V34.2743M25.0556 34.2743V29.6632M2 29.6632L8.52472 23.1385M13.5278 11.2188C12.1598 11.2188 10.8225 11.6244 9.68508 12.3844C8.54764 13.1444 7.66112 14.2247 7.13761 15.4885C6.61411 16.7524 6.47713 18.1431 6.74401 19.4848C7.01089 20.8265 7.66964 22.0589 8.63696 23.0262C9.60427 23.9936 10.8367 24.6523 12.1784 24.9192C13.5201 25.1861 14.9108 25.0491 16.1747 24.5256C17.4385 24.0021 18.5188 23.1156 19.2788 21.9781C20.0388 20.8407 20.4444 19.5034 20.4444 18.1354C20.4444 16.301 19.7157 14.5417 18.4186 13.2446C17.1215 11.9475 15.3622 11.2188 13.5278 11.2188Z" stroke="white" stroke-width="3.6" stroke-linecap="round" stroke-linejoin="round"/>
<path d="M13.5243 2H41.191C41.8024 2 42.3889 2.24291 42.8212 2.67528C43.2536 3.10766 43.4965 3.69408 43.4965 4.30556V41.1944C43.4965 41.8059 43.2536 42.3923 42.8212 42.8247C42.3889 43.2571 41.8024 43.5 41.191 43.5H13.5243C12.9128 43.5 12.3264 43.2571 11.894 42.8247C11.4617 42.3923 11.2188 41.8059 11.2188 41.1944V34.2778" stroke="white" stroke-width="3.6" stroke-linecap="round" stroke-linejoin="round"/>
</svg>
