<svg width="57" height="44" viewBox="0 0 57 44" fill="none" xmlns="http://www.w3.org/2000/svg">
<path d="M39.6716 26.4947V39.7398H3.77583V15.5725H23.6929C23.7384 15.3765 23.8001 15.1822 23.8835 14.9923L25.4633 11.3906H2.50912C1.12545 11.3906 0 12.5164 0 13.8999V41.4121C0 42.7959 1.12545 43.9212 2.50912 43.9212H40.9382C42.3218 43.9212 43.4473 42.7959 43.4473 41.4121V26.8728C43.4432 26.8728 43.4394 26.8728 43.4353 26.8725C42.1583 26.8276 40.9025 26.7001 39.6716 26.4947Z" fill="white"/>
<mask id="path-2-outside-1_2385_11490" maskUnits="userSpaceOnUse" x="21.7656" y="-0.15625" width="35" height="29" fill="black">
<rect fill="white" x="21.7656" y="-0.15625" width="35" height="29"/>
<path d="M52.6298 14.5772L43.0562 5.15705C42.7117 4.724 42.1754 4.48869 41.6229 4.52851L28.1615 3.84375C27.5924 3.84375 26.9966 4.27292 26.7464 4.84284C26.4967 5.41227 26.5824 6.07348 26.9698 6.56051L28.8531 8.92837L28.4194 9.91707C27.0526 13.0342 27.5126 11.9858 25.8981 15.6647C25.6393 16.255 25.7666 16.9435 26.2196 17.4019C28.615 19.8246 31.3448 21.7186 34.3333 23.0295C34.3338 23.0297 34.3338 23.0297 34.3342 23.0297C37.3237 24.3408 40.5652 25.0672 43.9693 25.1877C44.6136 25.2109 45.206 24.8382 45.4648 24.248L48.42 17.5116L49.9379 17.402L49.9412 21.4224L49.7326 21.4223C49.5874 21.4095 49.4589 21.5139 49.4425 21.6587L49.1723 24.0027C49.164 24.0742 49.1852 24.146 49.2305 24.202C49.2757 24.2577 49.3416 24.2933 49.4131 24.3001L51.5593 24.2983C51.6313 24.2909 51.6972 24.2559 51.7416 24.1998C51.7875 24.144 51.8078 24.0719 51.7997 24.0005C51.7456 23.5402 51.692 23.0801 51.6382 22.6199L51.526 21.6568C51.5091 21.5128 51.3803 21.4086 51.2356 21.4213L51.0272 21.4215L51.0238 17.3081L51.8079 17.2243C52.2835 17.137 52.6544 16.7482 52.8529 16.2948C53.1031 15.7253 53.0487 15.0098 52.6298 14.5772Z"/>
</mask>
<path d="M52.6298 14.5772L55.1443 12.1426L55.1148 12.1121L55.0846 12.0824L52.6298 14.5772ZM43.0562 5.15705L40.3173 7.33603L40.4498 7.50257L40.6014 7.65183L43.0562 5.15705ZM41.6229 4.52851L41.445 8.02399L41.6599 8.03492L41.8745 8.01946L41.6229 4.52851ZM28.1615 3.84375L28.3394 0.34827L28.2505 0.34375H28.1615V3.84375ZM26.7464 4.84284L23.5417 3.43588L23.5411 3.4372L26.7464 4.84284ZM26.9698 6.56051L29.7091 4.38189L29.7088 4.38147L26.9698 6.56051ZM28.8531 8.92837L32.0583 10.3343L32.906 8.40154L31.5923 6.74976L28.8531 8.92837ZM28.4194 9.91707L25.2142 8.51116L25.214 8.51159L28.4194 9.91707ZM25.8981 15.6647L22.6932 14.2582L22.6927 14.2592L25.8981 15.6647ZM26.2196 17.4019L23.7301 19.8621L23.7307 19.8627L26.2196 17.4019ZM34.3333 23.0295L35.8985 19.899L35.8198 19.8596L35.7393 19.8243L34.3333 23.0295ZM34.3342 23.0297L35.7399 19.8244L35.0679 19.5297H34.3342V23.0297ZM43.9693 25.1877L44.0951 21.69L44.0931 21.6899L43.9693 25.1877ZM45.4648 24.248L42.2597 22.8419L42.2595 22.8422L45.4648 24.248ZM48.42 17.5116L48.168 14.0207L46.0628 14.1726L45.2149 16.1055L48.42 17.5116ZM49.9379 17.402L53.4379 17.3992L53.4349 13.6404L49.6859 13.9111L49.9379 17.402ZM49.9412 21.4224L49.9391 24.9224L53.444 24.9245L53.4412 21.4196L49.9412 21.4224ZM49.7326 21.4223L49.4257 24.9088L49.5778 24.9222L49.7305 24.9223L49.7326 21.4223ZM49.4425 21.6587L52.9195 22.0596L52.9203 22.0528L49.4425 21.6587ZM49.1723 24.0027L52.6491 24.4045L52.6492 24.4035L49.1723 24.0027ZM49.2305 24.202L46.5106 26.4047L46.5124 26.407L49.2305 24.202ZM49.4131 24.3001L49.0836 27.7845L49.2494 27.8002L49.4159 27.8001L49.4131 24.3001ZM51.5593 24.2983L51.5622 27.7983L51.7398 27.7982L51.9165 27.78L51.5593 24.2983ZM51.7416 24.1998L49.0385 21.9765L49.0182 22.0011L48.9985 22.0261L51.7416 24.1998ZM51.7997 24.0005L55.2779 23.61L55.2769 23.601L55.2758 23.592L51.7997 24.0005ZM51.6382 22.6199L48.1617 23.0249L48.1619 23.0266L51.6382 22.6199ZM51.526 21.6568L55.0025 21.2518L55.0021 21.2488L51.526 21.6568ZM51.2356 21.4213L51.2398 24.9213L51.3903 24.9211L51.5402 24.908L51.2356 21.4213ZM51.0272 21.4215L47.5272 21.4244L47.5301 24.9257L51.0314 24.9215L51.0272 21.4215ZM51.0238 17.3081L50.6519 13.8279L47.5212 14.1624L47.5238 17.3109L51.0238 17.3081ZM51.8079 17.2243L52.1797 20.7045L52.3104 20.6905L52.4396 20.6668L51.8079 17.2243ZM52.8529 16.2948L49.6485 14.8871L49.6468 14.891L52.8529 16.2948ZM55.0846 12.0824L45.5111 2.66226L40.6014 7.65183L50.175 17.0719L55.0846 12.0824ZM45.7952 2.97806C44.7311 1.64043 43.0754 0.914737 41.3712 1.03757L41.8745 8.01946C41.2753 8.06264 40.6924 7.80756 40.3173 7.33603L45.7952 2.97806ZM41.8007 1.03303L28.3394 0.34827L27.9837 7.33923L41.445 8.02399L41.8007 1.03303ZM28.1615 0.34375C25.9924 0.34375 24.2602 1.79934 23.5417 3.43588L29.9512 6.24981C29.8038 6.5856 29.5884 6.82161 29.3611 6.98303C29.1423 7.13844 28.7398 7.34375 28.1615 7.34375V0.34375ZM23.5411 3.4372C22.7704 5.19463 23.0346 7.23582 24.2309 8.73955L29.7088 4.38147C30.1302 4.91115 30.223 5.6299 29.9518 6.24848L23.5411 3.4372ZM24.2306 8.73912L26.1138 11.107L31.5923 6.74976L29.7091 4.38189L24.2306 8.73912ZM25.6478 7.52246L25.2142 8.51116L31.6246 11.323L32.0583 10.3343L25.6478 7.52246ZM25.214 8.51159C23.8474 11.6284 24.3075 10.5796 22.6932 14.2582L29.1031 17.0712C30.7177 13.3919 30.2579 14.44 31.6248 11.3225L25.214 8.51159ZM22.6927 14.2592C21.8583 16.1622 22.2683 18.3829 23.7301 19.8621L28.709 14.9417C29.2649 15.5041 29.4202 16.3478 29.1035 17.0702L22.6927 14.2592ZM23.7307 19.8627C26.4226 22.5852 29.5159 24.7382 32.9273 26.2347L35.7393 19.8243C33.1737 18.6989 30.8074 17.064 28.7084 14.9411L23.7307 19.8627ZM32.768 26.16C32.7479 26.1499 32.8047 26.1787 32.8652 26.2067C32.9333 26.2382 33.1195 26.3227 33.3703 26.3945C33.6569 26.4765 33.9112 26.5097 34.1088 26.5225C34.2463 26.5313 34.374 26.5297 34.3342 26.5297V19.5297C34.2941 19.5297 34.4217 19.5281 34.559 19.537C34.7566 19.5497 35.0108 19.5829 35.2972 19.6649C35.5479 19.7367 35.734 19.8211 35.802 19.8526C35.8623 19.8804 35.919 19.9092 35.8985 19.899L32.768 26.16ZM32.9285 26.2351C36.34 27.7312 40.0184 28.5501 43.8455 28.6855L44.0931 21.6899C41.1119 21.5844 38.3073 20.9504 35.7399 19.8244L32.9285 26.2351ZM43.8435 28.6855C45.9244 28.7603 47.8357 27.5562 48.6701 25.6537L42.2595 22.8422C42.5762 22.1202 43.3028 21.6615 44.0951 21.69L43.8435 28.6855ZM48.67 25.654L51.6252 18.9176L45.2149 16.1055L42.2597 22.8419L48.67 25.654ZM48.672 21.0025L50.1899 20.8929L49.6859 13.9111L48.168 14.0207L48.672 21.0025ZM46.4379 17.4048L46.4412 21.4252L53.4412 21.4196L53.4379 17.3992L46.4379 17.4048ZM49.9433 17.9224L49.7346 17.9223L49.7305 24.9223L49.9391 24.9224L49.9433 17.9224ZM50.0394 17.9358C48.0129 17.7574 46.1961 19.2229 45.9648 21.2646L52.9203 22.0528C52.7217 23.805 51.1619 25.0616 49.4257 24.9088L50.0394 17.9358ZM45.9656 21.2578L45.6953 23.6018L52.6492 24.4035L52.9195 22.0596L45.9656 21.2578ZM45.6954 23.6008C45.578 24.6166 45.8793 25.6252 46.5106 26.4047L51.9504 21.9993C52.4911 22.6669 52.75 23.5317 52.6491 24.4045L45.6954 23.6008ZM46.5124 26.407C47.1444 27.1861 48.068 27.6885 49.0836 27.7845L49.7426 20.8156C50.6152 20.8981 51.407 21.3294 51.9486 21.997L46.5124 26.407ZM49.4159 27.8001L51.5622 27.7983L51.5564 20.7983L49.4102 20.8001L49.4159 27.8001ZM51.9165 27.78C52.8889 27.6803 53.8302 27.1996 54.4848 26.3735L48.9985 22.0261C49.5641 21.3122 50.3737 20.9016 51.202 20.8166L51.9165 27.78ZM54.4448 26.423C55.114 25.6094 55.3875 24.586 55.2779 23.61L48.3216 24.3911C48.228 23.5578 48.461 22.6787 49.0385 21.9765L54.4448 26.423ZM55.2758 23.592C55.2218 23.1327 55.1686 22.6758 55.1145 22.2131L48.1619 23.0266C48.2155 23.4844 48.2694 23.9477 48.3237 24.409L55.2758 23.592ZM55.1147 22.2148L55.0025 21.2518L48.0495 22.0619L48.1617 23.0249L55.1147 22.2148ZM55.0021 21.2488C54.7629 19.2107 52.9465 17.7585 50.9309 17.9346L51.5402 24.908C49.8141 25.0588 48.2553 23.8149 48.0499 22.0649L55.0021 21.2488ZM51.2314 17.9213L51.023 17.9215L51.0314 24.9215L51.2398 24.9213L51.2314 17.9213ZM54.5272 21.4186L54.5238 17.3052L47.5238 17.3109L47.5272 21.4244L54.5272 21.4186ZM51.3957 20.7883L52.1797 20.7045L51.436 13.7441L50.6519 13.8279L51.3957 20.7883ZM52.4396 20.6668C54.4423 20.2993 55.5762 18.8015 56.0591 17.6986L49.6468 14.891C49.7144 14.7367 49.8336 14.5361 50.0494 14.3352C50.2723 14.1276 50.6479 13.8787 51.1761 13.7818L52.4396 20.6668ZM56.0573 17.7026C56.7279 16.1761 56.7907 13.8431 55.1443 12.1426L50.1152 17.0117C49.6974 16.5801 49.5516 16.1041 49.5148 15.7815C49.4785 15.4631 49.5277 15.1622 49.6485 14.8871L56.0573 17.7026Z" fill="white" mask="url(#path-2-outside-1_2385_11490)"/>
<path d="M9.26562 25.4688H20.5905" stroke="white" stroke-width="2.5" stroke-linecap="round"/>
<path d="M9.26562 32.6719H25.7382" stroke="white" stroke-width="2.5" stroke-linecap="round"/>
</svg>
