<svg width="49" height="47" viewBox="0 0 49 47" fill="none" xmlns="http://www.w3.org/2000/svg">
<path d="M45.0464 15.0537L44.7804 15.2535L45.0464 15.4534C47.044 16.9543 48.3354 19.3428 48.3354 22.0329C48.3354 26.5751 44.6533 30.2571 40.1112 30.2571H25.9875H25.7375V30.5071V34.1307V34.3198L25.9195 34.3712C27.9054 34.9329 29.471 36.4984 30.0326 38.4844L30.0841 38.6663H30.2732H46.8905C47.6885 38.6663 48.3354 39.3132 48.3354 40.1112C48.3354 40.9091 47.6885 41.556 46.8905 41.556H30.2732H30.0841L30.0326 41.738C29.3245 44.2416 27.0225 46.0756 24.2927 46.0756C21.5629 46.0756 19.2609 44.2416 18.5528 41.738L18.5013 41.556H18.3122H1.69484C0.896886 41.556 0.25 40.9091 0.25 40.1112C0.25 39.3132 0.896886 38.6663 1.69484 38.6663H18.3122H18.5013L18.5528 38.4844C19.1145 36.4984 20.68 34.9329 22.6659 34.3712L22.8478 34.3198V34.1307V30.5071V30.2571H22.5978H8.47419C3.93209 30.2571 0.25 26.5751 0.25 22.0329C0.25 19.3428 1.54135 16.9543 3.53901 15.4534L3.80504 15.2535L3.53901 15.0537C1.54135 13.5528 0.25 11.1643 0.25 8.47419C0.25 3.93209 3.93209 0.25 8.47419 0.25H40.1112C44.6533 0.25 48.3354 3.93209 48.3354 8.47419C48.3354 11.1643 47.044 13.5528 45.0464 15.0537ZM3.13968 8.47419C3.13968 11.4204 5.52802 13.8087 8.47419 13.8087H40.1112C43.0573 13.8087 45.4457 11.4204 45.4457 8.47419C45.4457 5.52802 43.0573 3.13968 40.1112 3.13968H8.47419C5.52802 3.13968 3.13968 5.52802 3.13968 8.47419ZM40.1112 16.6984H8.47419C5.52802 16.6984 3.13968 19.0867 3.13968 22.0329C3.13968 24.979 5.52802 27.3674 8.47419 27.3674H40.1112C43.0573 27.3674 45.4457 24.979 45.4457 22.0329C45.4457 19.0867 43.0573 16.6984 40.1112 16.6984ZM25.1076 8.47419C25.1076 7.67624 25.7545 7.02935 26.5525 7.02935H40.1112C40.9091 7.02935 41.556 7.67624 41.556 8.47419C41.556 9.27215 40.9091 9.91903 40.1112 9.91903H26.5525C25.7545 9.91903 25.1076 9.27215 25.1076 8.47419ZM25.1076 22.0329C25.1076 21.235 25.7545 20.5881 26.5525 20.5881H40.1112C40.9091 20.5881 41.556 21.235 41.556 22.0329C41.556 22.8308 40.9091 23.4777 40.1112 23.4777H26.5525C25.7545 23.4777 25.1076 22.8308 25.1076 22.0329ZM24.2927 37.0364C22.5945 37.0364 21.218 38.413 21.218 40.1112C21.218 41.8094 22.5945 43.1859 24.2927 43.1859C25.9909 43.1859 27.3674 41.8094 27.3674 40.1112C27.3674 38.413 25.9909 37.0364 24.2927 37.0364Z" fill="white" stroke="white" stroke-width="0.5"/>
<path d="M12.9961 8.47072C12.9961 9.71876 11.9844 10.7305 10.7363 10.7305C9.48831 10.7305 8.47656 9.71876 8.47656 8.47072C8.47656 7.22269 9.48831 6.21094 10.7363 6.21094C11.9844 6.21094 12.9961 7.22269 12.9961 8.47072Z" fill="white"/>
<path d="M12.9961 22.0332C12.9961 23.2813 11.9844 24.293 10.7363 24.293C9.48831 24.293 8.47656 23.2813 8.47656 22.0332C8.47656 20.7851 9.48831 19.7734 10.7363 19.7734C11.9844 19.7734 12.9961 20.7851 12.9961 22.0332Z" fill="white"/>
</svg>
