<svg width="49" height="46" viewBox="0 0 49 46" fill="none" xmlns="http://www.w3.org/2000/svg">
<path d="M7.73212 33.2493H3.24997C2.55749 33.2493 2 32.6918 2 31.9994V3.24997C2 2.55749 2.55749 2 3.24997 2H45.7491C46.4416 2 46.999 2.55749 46.999 3.24997V31.9994C46.999 32.6918 46.4416 33.2493 45.7491 33.2493H27.2453" stroke="white" stroke-width="2.8" stroke-linecap="round" stroke-linejoin="round"/>
<path d="M17.6795 26.6872C21.8216 26.6872 25.1794 23.3294 25.1794 19.1873C25.1794 15.0453 21.8216 11.6875 17.6795 11.6875C13.5375 11.6875 10.1797 15.0453 10.1797 19.1873C10.1797 23.3294 13.5375 26.6872 17.6795 26.6872Z" stroke="white" stroke-width="2.8" stroke-linecap="round" stroke-linejoin="round"/>
<path d="M5.10579 44.1053H29.9526C31.1646 23.2354 4.09434 22.3449 5.10579 44.1053Z" stroke="white" stroke-width="2.8" stroke-linecap="round" stroke-linejoin="round"/>
<path d="M16.7422 2V11.7461" stroke="white" stroke-width="2.8" stroke-linecap="round" stroke-linejoin="round"/>
<path d="M31.4453 2V33.2493" stroke="white" stroke-width="2.8" stroke-linecap="round" stroke-linejoin="round"/>
<path d="M46.9937 17.625H25.0156" stroke="white" stroke-width="2.8" stroke-linecap="round" stroke-linejoin="round"/>
<path d="M2 17.625H10.2593" stroke="white" stroke-width="2.8" stroke-linecap="round" stroke-linejoin="round"/>
<path d="M31.5312 25.3047H47.0024" stroke="white" stroke-width="2.8" stroke-linecap="round" stroke-linejoin="round"/>
</svg>
