<svg width="54" height="40" viewBox="0 0 54 40" fill="none" xmlns="http://www.w3.org/2000/svg">
<path d="M48.5638 1H5.88973C3.1906 1.00356 1.00356 3.1906 1 5.88973V34.3391C1.00356 37.0382 3.1906 39.2253 5.88973 39.2288H48.5638C51.2629 39.2253 53.4499 37.0382 53.4535 34.3391V5.88973C53.4499 3.1906 51.2629 1.00356 48.5638 1ZM5.88973 3.66713H48.5638C49.7906 3.6689 50.7846 4.66285 50.7864 5.88973V8.11234H3.66713V5.88973C3.6689 4.66285 4.66285 3.6689 5.88973 3.66713ZM48.5638 36.5617H5.88973C4.66285 36.5599 3.6689 35.566 3.66713 34.3391V10.7795H50.7864V34.3391C50.7846 35.566 49.7906 36.5599 48.5638 36.5617ZM15.927 23.0091C18.5141 23.0091 20.6123 20.911 20.6123 18.3239C20.6123 15.7368 18.5141 13.6386 15.927 13.6386C13.3399 13.6386 11.2418 15.7368 11.2418 18.3239C11.2435 20.911 13.3399 23.0056 15.927 23.0091ZM15.927 16.3057C17.0419 16.3057 17.9451 17.209 17.9451 18.3239C17.9451 19.4387 17.0419 20.342 15.927 20.342C14.8122 20.342 13.9089 19.4387 13.9089 18.3239C13.9107 17.209 14.8122 16.3075 15.927 16.3057ZM15.927 25.1126C12.1041 25.1286 8.90892 27.7975 8.08567 31.3715L8.075 31.4266C8.05544 31.5119 8.04477 31.6097 8.04477 31.7111C8.04477 32.4472 8.64221 33.0446 9.37833 33.0446C10.0131 33.0446 10.5448 32.6001 10.6781 32.0045L10.6799 31.9956C11.2293 29.5667 13.3684 27.7797 15.927 27.7797C18.4857 27.7797 20.6247 29.5667 21.167 31.96L21.1741 31.9956C21.3111 32.5966 21.8409 33.0393 22.4757 33.0393C23.2118 33.0393 23.8093 32.4419 23.8093 31.7057C23.8093 31.6062 23.7986 31.5101 23.7773 31.4159L23.779 31.4248C22.9451 27.7957 19.7517 25.1286 15.9306 25.1108H15.9288L15.927 25.1126ZM45.0076 15.2247H30.7829C30.0468 15.2247 29.4493 15.8221 29.4493 16.5582C29.4493 17.2944 30.0468 17.8918 30.7829 17.8918H45.0076C45.7437 17.8918 46.3411 17.2944 46.3411 16.5582C46.3411 15.8221 45.7437 15.2247 45.0076 15.2247ZM45.0076 22.337H30.7829C30.0468 22.337 29.4493 22.9344 29.4493 23.6706C29.4493 24.4067 30.0468 25.0041 30.7829 25.0041H45.0076C45.7437 25.0041 46.3411 24.4067 46.3411 23.6706C46.3411 22.9344 45.7437 22.337 45.0076 22.337ZM45.0076 29.4493H30.7829C30.0468 29.4493 29.4493 30.0468 29.4493 30.7829C29.4493 31.519 30.0468 32.1165 30.7829 32.1165H45.0076C45.7437 32.1165 46.3411 31.519 46.3411 30.7829C46.3411 30.0468 45.7437 29.4493 45.0076 29.4493Z" fill="white" stroke="white" stroke-width="0.3"/>
</svg>
