<svg width="51" height="53" viewBox="0 0 51 53" fill="none" xmlns="http://www.w3.org/2000/svg">
<path d="M19.3048 13.4243C12.6946 15.987 8.27851 22.473 8.27851 29.5641V34.2863C8.27851 34.9324 7.70455 35.4726 7.05845 35.4726H4.62002C2.63052 35.4726 1 33.8375 1 31.848V26.5137C1 24.9415 2.01197 23.5609 3.51148 23.0782C4.1269 22.8801 4.79003 23.2183 4.98798 23.8332C5.18593 24.4481 4.84501 25.1072 4.22997 25.3052C3.70917 25.4728 3.33952 25.9699 3.33952 26.5137V31.848C3.33952 32.5476 3.92063 33.1331 4.62002 33.1331H5.93899V29.5643C5.93899 25.524 7.13137 21.6428 9.43463 18.3402C11.6849 15.1137 14.7803 12.6595 18.4341 11.2431C19.0364 11.0096 19.7141 11.3085 19.9477 11.911C20.181 12.5132 19.9071 13.1907 19.3048 13.4243ZM38.3108 14.0901C38.3108 16.5442 36.3142 18.5408 33.86 18.5408C31.406 18.5408 29.4093 16.5443 29.4093 14.0901C29.4093 11.636 31.4059 9.63947 33.86 9.63947C36.3142 9.63947 38.3108 11.6361 38.3108 14.0901ZM35.9713 14.0901C35.9713 12.9261 35.0242 11.979 33.86 11.979C32.696 11.979 31.7489 12.9261 31.7489 14.0901C31.7489 15.2542 32.696 16.2013 33.86 16.2013C35.0242 16.2013 35.9713 15.2542 35.9713 14.0901ZM50 26.5135V31.8479C50 33.8374 48.4343 35.4725 46.4448 35.4725H44.2843C43.5748 37.682 42.4488 39.864 40.9325 41.7761C38.4412 44.9179 35.0129 47.2427 31.2002 48.3933C31.0288 50.3178 29.4077 51.849 27.4397 51.849H23.6253C21.5435 51.849 19.8498 50.1617 19.8498 48.0799C19.8498 45.9977 21.5435 44.3105 23.6253 44.3105H27.4399C28.81 44.3105 30.0122 45.0201 30.6739 46.1152C37.8839 43.8842 42.8365 37.2019 42.8365 29.5639C42.8365 27.2098 42.3729 24.9307 41.458 22.7859L39.919 22.0982C39.2565 22.6011 38.5396 23.0162 37.7761 23.3391L37.5845 25.1868C37.5215 26.4041 36.1051 27.1566 33.8603 27.1566C31.6094 27.1566 30.1935 26.402 30.1356 25.181L29.9446 23.3392C29.1811 23.0165 28.4642 22.6013 27.8016 22.0985L26.0997 22.8591C25.0143 23.4108 23.6554 22.5604 22.5339 20.6175C22.1291 19.9166 21.8396 19.1855 21.7187 18.5594C21.4663 17.2514 21.9933 16.6582 22.3797 16.4064L23.8917 15.3109C23.8426 14.9059 23.8178 14.4971 23.8178 14.0889C23.8178 13.6738 23.8434 13.2587 23.894 12.8476L22.3827 11.7527C21.354 11.0922 21.4084 9.48844 22.5341 7.5391C23.6558 5.5956 25.0152 4.74519 26.1007 5.29822L27.819 6.06611C28.4761 5.56961 29.1864 5.15928 29.9422 4.83942L30.1356 2.97547C30.1933 1.75476 31.6093 1 33.86 1C36.1057 1 37.5224 1.75307 37.5844 2.97118L37.7781 4.83955C38.5337 5.15928 39.2442 5.56987 39.9014 6.06624L41.6166 5.30004C42.0278 5.09157 42.8052 4.93183 43.8116 5.80408C44.2934 6.22182 44.7816 6.83802 45.1863 7.53923C46.309 9.48324 46.3654 11.0865 45.3424 11.7496L43.8264 12.8479C43.8771 13.259 43.9027 13.6741 43.9027 14.089C43.9027 14.4977 43.878 14.9066 43.8289 15.3109L45.3441 16.4089C46.3654 17.0728 46.3084 18.6756 45.1862 20.6187C44.7817 21.3197 44.2934 21.9369 43.8116 22.3548C43.8111 22.3553 43.8104 22.3579 43.8097 22.3584C44.7167 24.6519 45.176 27.0777 45.176 29.5722C45.176 30.7781 45.0696 31.9631 44.8597 33.1328H46.4448C47.1443 33.1328 47.6605 32.5473 47.6605 31.8478V26.5134C47.6605 25.9695 47.3166 25.4726 46.7958 25.3049C46.1809 25.107 45.8627 24.4479 46.0606 23.833C46.2586 23.2181 46.9044 22.8799 47.5193 23.0779C49.019 23.5609 50 24.9415 50 26.5135ZM28.8758 48.0621C28.8758 47.9666 28.8664 47.8614 28.8486 47.7711C28.8455 47.7576 28.8427 47.7561 28.8399 47.7425C28.6942 47.1039 28.1218 46.6502 27.4399 46.6502H23.6253C22.8335 46.6502 22.1893 47.2878 22.1893 48.0796C22.1893 48.8718 22.8335 49.5096 23.6253 49.5096H27.4399C28.2317 49.5097 28.8758 48.8539 28.8758 48.0621ZM41.8707 11.3759L43.7062 10.0462C43.6526 9.7723 43.4965 9.29166 43.1601 8.70925C42.824 8.12697 42.486 7.75147 42.2755 7.56821L40.1982 8.49622C39.7803 8.68299 39.2917 8.60865 38.9481 8.3062C38.1729 7.62384 37.2873 7.11213 36.3161 6.78577C35.8816 6.63968 35.5726 6.2534 35.5252 5.79745L35.2908 3.53526C35.0269 3.44467 34.5326 3.33952 33.86 3.33952C33.1877 3.33952 32.6934 3.44467 32.4294 3.53513L32.1947 5.79745C32.1474 6.25327 31.8382 6.63955 31.4039 6.78564C30.4321 7.11226 29.5467 7.62371 28.7721 8.30594C28.4284 8.60865 27.9396 8.68286 27.5217 8.49596L25.4446 7.56769C25.2342 7.75095 24.896 8.12645 24.5598 8.70886C24.2235 9.29114 24.0673 9.77178 24.0139 10.0458L25.8494 11.3755C26.2204 11.6444 26.4005 12.1052 26.3097 12.5544C26.2084 13.0565 26.157 13.5727 26.157 14.089C26.157 14.5994 26.2073 15.1103 26.3066 15.608C26.396 16.0564 26.216 16.5158 25.8459 16.7841L24.014 18.1114C24.0676 18.3853 24.2237 18.8659 24.5599 19.448C24.8961 20.0306 25.2343 20.4061 25.4448 20.5893L27.5061 19.6682C27.925 19.4809 28.4148 19.5561 28.7586 19.8601C29.537 20.5488 30.4277 21.0647 31.4059 21.393C31.8405 21.5389 32.1498 21.9252 32.1971 22.3812L32.4297 24.6218C32.6936 24.7124 33.1878 24.8174 33.8603 24.8174C34.5329 24.8174 35.0272 24.7122 35.2912 24.6216L35.5236 22.3813C35.5709 21.9253 35.8801 21.5391 36.3146 21.393C37.293 21.0644 38.1837 20.5485 38.9619 19.8599C39.3056 19.5558 39.7951 19.4808 40.2142 19.668L42.2758 20.589C42.4862 20.4056 42.8242 20.0302 43.1601 19.448C43.4966 18.8655 43.6529 18.3847 43.7063 18.1109L41.8744 16.7839C41.5039 16.5155 41.3239 16.0555 41.4138 15.6069C41.513 15.1114 41.5633 14.6006 41.5633 14.089C41.5633 13.5729 41.5118 13.0566 41.4106 12.5545C41.3197 12.1055 41.4996 11.6447 41.8707 11.3759Z" fill="white" stroke="white" stroke-width="0.6"/>
</svg>
