<svg width="37" height="51" viewBox="0 0 37 51" fill="none" xmlns="http://www.w3.org/2000/svg">
<path d="M16.4417 13.8015C17.3347 12.1995 17.7813 11.3984 18.449 11.3984C19.1166 11.3984 19.5632 12.1995 20.4562 13.8015L20.6873 14.216C20.9408 14.6712 21.0678 14.8989 21.2656 15.0491C21.4635 15.1993 21.7098 15.255 22.2027 15.3665L22.6513 15.468C24.3855 15.8604 25.2527 16.0566 25.4591 16.72C25.6654 17.3834 25.0741 18.0746 23.892 19.4571L23.586 19.8148C23.2501 20.2077 23.0821 20.4041 23.0064 20.6471C22.931 20.8901 22.9564 21.1521 23.0071 21.6765L23.0534 22.1535C23.232 23.9982 23.3216 24.9204 22.7815 25.3305C22.2412 25.7404 21.4295 25.3667 19.8057 24.6191L19.3857 24.4257C18.9242 24.2132 18.6936 24.107 18.449 24.107C18.2043 24.107 17.9738 24.2132 17.5122 24.4257L17.0922 24.6191C15.4685 25.3667 14.6567 25.7404 14.1164 25.3305C13.5764 24.9204 13.6658 23.9982 13.8445 22.1535L13.8908 21.6765C13.9416 21.1521 13.9669 20.8901 13.8915 20.6471C13.8158 20.4041 13.6479 20.2077 13.3119 19.8148L13.006 19.4571C11.8237 18.0746 11.2326 17.3834 11.4389 16.72C11.6452 16.0566 12.5123 15.8604 14.2466 15.468L14.6953 15.3665C15.1881 15.255 15.4344 15.1993 15.6323 15.0491C15.8302 14.8989 15.9571 14.6712 16.2106 14.216L16.4417 13.8015Z" stroke="white" stroke-width="2.2"/>
<path d="M7.52691 32.5547L6.03015 38.0141C4.55344 43.4003 3.81509 46.0933 4.80037 47.5678C5.14569 48.0844 5.60891 48.4992 6.14644 48.7728C7.68023 49.5537 10.0484 48.3199 14.7847 45.852C16.3607 45.0308 17.1487 44.6203 17.9859 44.5309C18.2963 44.4978 18.6089 44.4978 18.9194 44.5309C19.7565 44.6203 20.5445 45.0308 22.1205 45.852C26.8568 48.3199 29.2251 49.5537 30.7588 48.7728C31.2963 48.4992 31.7596 48.0844 32.1048 47.5678C33.0902 46.0933 32.3518 43.4003 30.8752 38.0141L29.3784 32.5547" stroke="white" stroke-width="3" stroke-linecap="round"/>
<path d="M3.17509 12.3335C2.41704 14.2247 2 16.2892 2 18.4512C2 27.537 9.36547 34.9025 18.4512 34.9025C27.537 34.9025 34.9025 27.537 34.9025 18.4512C34.9025 9.36547 27.537 2 18.4512 2C16.2893 2 14.2247 2.41704 12.3335 3.17509" stroke="white" stroke-width="3" stroke-linecap="round"/>
</svg>
